<?xml version="1.0" encoding="utf-8"?>
<!-- Generator: Adobe Illustrator 21.1.0, SVG Export Plug-In . SVG Version: 6.00 Build 0)  -->
<svg version="1.1" id="Layer_1" xmlns="http://www.w3.org/2000/svg" xmlns:xlink="http://www.w3.org/1999/xlink" x="0px" y="0px"
	 viewBox="0 0 258.6 131.4" style="enable-background:new 0 0 258.6 131.4;" xml:space="preserve">
<style type="text/css">
	.st0{fill:#FFF7DF;stroke:#020203;stroke-width:2;}
	.st1{fill:none;stroke:#020203;stroke-width:0.75;}
	.st2{fill:#F4E600;stroke:#020203;stroke-width:0.75;}
	.st3{fill:#C1292E;stroke:#020203;stroke-width:0.75;}
	.st4{fill:#020203;}
	.st5{fill:#020203;stroke:#020203;stroke-width:0.75;}
	.st6{fill:#FFFFFF;}
</style>
<!-- This is the box -->
<polygon class="st0" points="197.7,13.4 209.2,1 42.8,1 54.3,13.4 1,13.4 1,46.2 1,54.1 1,77.2 1,86.9 1,117.9 54.3,117.9
	42.8,130.4 209.2,130.4 197.7,117.9 251,117.9 251,86.9 251,77.2 251,54.1 251,46.2 251,13.4 "/>

<!-- These are minima circles styled according to above -->
<!-- Ability minima -->
<circle class="st1" cx="126" cy="13.3" r="7.6"/>
<circle class="st1" cx="103" cy="13.3" r="7.6"/>
<circle class="st2" cx="80" cy="13.3" r="7.6"/>
<circle class="st1" cx="149" cy="13.3" r="7.6"/>
<circle class="st1" cx="172" cy="13.3" r="7.6"/>
<!-- Essence minima -->
<circle class="st3" cx="126" cy="118.3" r="7.6"/>
<circle class="st3" cx="103" cy="118.3" r="7.6"/>
<circle class="st3" cx="80" cy="118.3" r="7.6"/>
<circle class="st1" cx="149" cy="118.3" r="7.6"/>
<circle class="st1" cx="172" cy="118.3" r="7.6"/>

<!-- This is text -->
<g>
	<path class="st4" d="M70.7,27.7c-0.1,0.2-0.1,0.4-0.2,0.5s-0.2,0.3-0.3,0.3c0-0.2-0.1-0.3-0.1-0.4c-0.1-0.1-0.2-0.2-0.3-0.2
		c-0.1,0-0.3-0.1-0.5-0.1c-0.2,0-0.4,0-0.6,0c-0.6,0-1.1,0.1-1.5,0.2c-0.4,0.1-0.6,0.3-0.6,0.6v3.1h2.9l0.4,0.4
		c-0.1,0-0.2,0.1-0.2,0.2c-0.1,0.1-0.1,0.2-0.2,0.4c-0.1,0.2-0.1,0.3-0.2,0.5c-0.1,0.1-0.2,0.2-0.3,0.2c0-0.3-0.1-0.5-0.3-0.6
		s-0.5-0.2-0.9-0.2c-0.1,0-0.2,0-0.3,0c-0.1,0-0.2,0-0.3,0c-0.1,0-0.2,0-0.4,0c-0.1,0-0.2,0-0.3,0c0.1,0.1,0.2,0.3,0.2,0.4
		c0,0.1,0.1,0.4,0.1,0.7c0,0.2,0,0.4,0,0.7c0,0.3,0,0.5,0,0.8c0,0.3,0,0.6,0,0.8s0,0.6,0,0.8c0,0.3,0,0.6,0,0.9
		c0,0.3,0.1,0.5,0.1,0.7c-0.2,0-0.4-0.1-0.6-0.2c-0.2-0.1-0.4-0.3-0.6-0.5c-0.2-0.2-0.4-0.3-0.6-0.4s-0.5-0.2-0.8-0.2
		c0-0.1,0-0.2,0.1-0.3c0.1-0.1,0.2-0.1,0.3-0.2c0.2-0.1,0.3-0.3,0.4-0.5c0.1-0.3,0.2-0.7,0.2-1.4v-5.7c0-0.4,0-0.6-0.1-0.8
		s-0.1-0.4-0.2-0.5c-0.1-0.1-0.1-0.2-0.2-0.2c-0.1,0-0.1-0.1-0.2-0.1c-0.1,0-0.2-0.1-0.3-0.1c-0.1-0.1-0.1-0.2-0.1-0.4h6.4l0.4,0.4
		C70.9,27.3,70.7,27.5,70.7,27.7z"/>
	<path class="st4" d="M77.7,32.6c0,0.3-0.1,0.7-0.1,1.2c0,0.1,0,0.3,0,0.4c0,0.1,0,0.3,0,0.4h-5c0,1,0.3,1.8,0.7,2.4
		c0.5,0.6,1.1,0.8,1.8,0.8c0.4,0,0.8-0.1,1.2-0.4c0.4-0.2,0.6-0.6,0.7-1h0.3c0,0.1,0,0.2-0.1,0.4c0,0.2,0,0.3,0,0.5
		c0,0.1,0,0.3,0.1,0.3c-0.2,0.2-0.5,0.4-0.9,0.6s-0.8,0.2-1.3,0.2s-1-0.1-1.5-0.2c-0.5-0.2-0.9-0.4-1.3-0.7
		c-0.4-0.3-0.7-0.7-0.9-1.2s-0.3-1.1-0.3-1.7c0-0.6,0.1-1.2,0.3-1.7s0.5-0.9,0.9-1.2c0.4-0.3,0.8-0.6,1.2-0.8
		c0.5-0.2,0.9-0.3,1.4-0.3c0.4,0,0.7,0,1,0.1c0.3,0.1,0.6,0.2,0.9,0.3s0.5,0.2,0.7,0.4c0.2,0.1,0.4,0.3,0.5,0.4
		C77.9,32,77.8,32.3,77.7,32.6z M76.1,32.1c-0.1-0.2-0.2-0.3-0.4-0.5s-0.5-0.2-0.7-0.2c-0.3,0-0.6,0.1-0.9,0.2
		c-0.3,0.1-0.5,0.3-0.7,0.6c-0.2,0.2-0.3,0.5-0.5,0.8c-0.1,0.3-0.2,0.5-0.2,0.8h3.4V32.1z"/>
	<path class="st4" d="M84.5,38.4c-0.1-0.1-0.2-0.2-0.3-0.4S84,37.6,84,37.5c-0.1,0.1-0.3,0.3-0.5,0.4c-0.2,0.1-0.4,0.2-0.6,0.3
		c-0.2,0.1-0.4,0.2-0.7,0.2s-0.4,0.1-0.6,0.1c-0.3,0-0.7,0-1-0.1c-0.3-0.1-0.6-0.2-0.8-0.3s-0.4-0.4-0.6-0.6
		c-0.1-0.2-0.2-0.5-0.2-0.9c0-0.6,0.2-1,0.5-1.4c0.3-0.4,0.7-0.7,1.2-0.9c0.5-0.2,1-0.4,1.6-0.5c0.6-0.1,1.1-0.2,1.6-0.2v-0.8
		c0-0.4-0.1-0.8-0.4-1c-0.2-0.2-0.6-0.4-1.1-0.4c-0.2,0-0.3,0-0.6,0.1c-0.2,0.1-0.4,0.1-0.6,0.3c-0.2,0.1-0.4,0.3-0.5,0.5
		s-0.3,0.5-0.3,0.8h-0.3c0-0.2,0-0.3-0.1-0.6c-0.1-0.2-0.2-0.4-0.4-0.5c0.3-0.4,0.7-0.7,1.3-1c0.5-0.3,1.1-0.4,1.8-0.4
		c0.9,0,1.6,0.2,2,0.7c0.4,0.4,0.7,1,0.7,1.7v3.4c0,0.4,0.1,0.8,0.3,1.1s0.4,0.4,0.7,0.4v0.4H84.5z M83.9,34.8
		c-0.1-0.1-0.3-0.2-0.4-0.3c-0.1-0.1-0.3-0.2-0.4-0.2c0,0-0.1,0-0.2,0s-0.2,0-0.3,0.1c-0.6,0.1-1.1,0.4-1.4,0.7
		c-0.4,0.3-0.5,0.8-0.5,1.3c0,0.3,0.1,0.6,0.3,0.9c0.2,0.3,0.5,0.4,0.9,0.4c0.2,0,0.5,0,0.7-0.1c0.2-0.1,0.4-0.2,0.6-0.3
		c0.2-0.1,0.3-0.3,0.5-0.5c0.1-0.2,0.2-0.4,0.3-0.6V34.8z"/>
	<path class="st4" d="M91.8,37.3c0,0.1,0,0.2,0.1,0.4c-0.2,0.2-0.5,0.4-0.9,0.5c-0.4,0.1-0.7,0.2-1.1,0.2c-0.2,0-0.4,0-0.6-0.1
		c-0.2-0.1-0.4-0.2-0.6-0.4c-0.2-0.2-0.3-0.4-0.4-0.7C88.1,37,88,36.6,88,36.2v-4.7h-1.6v-0.6c0.4,0,0.8,0,1.1-0.1
		c0.3-0.1,0.5-0.2,0.7-0.3s0.3-0.4,0.4-0.7c0.1-0.3,0.1-0.7,0.1-1.1h0.6v2.2h2.5v0.6h-1c-0.1,0-0.2,0-0.2,0.1
		c-0.1,0.1-0.2,0.1-0.2,0.2c-0.3,0.3-0.6,0.5-0.8,0.5v4.3c0,0.4,0.1,0.7,0.2,0.9c0.1,0.2,0.3,0.2,0.6,0.2c0.2,0,0.3,0,0.5-0.1
		c0.1-0.1,0.3-0.2,0.4-0.3s0.2-0.2,0.3-0.4c0.1-0.1,0.1-0.3,0.2-0.4h0.3C91.8,36.8,91.8,37.1,91.8,37.3z"/>
	<path class="st4" d="M98.1,38.4L97.6,38c0.1,0,0.2-0.1,0.3-0.2c0.1-0.1,0.1-0.3,0.2-0.4s0.1-0.3,0.1-0.5s0-0.3,0-0.5v-2.9
		c0-0.2,0-0.5-0.1-0.7c0-0.2-0.1-0.4-0.2-0.6c-0.1-0.2-0.2-0.3-0.4-0.4s-0.4-0.2-0.7-0.2c-0.5,0-0.9,0.2-1.2,0.5
		c-0.3,0.3-0.4,0.8-0.4,1.4v2.9c0,1,0.2,1.6,0.6,1.6l-0.5,0.4h-2.6V38c0.3,0,0.6-0.1,0.8-0.3c0.2-0.2,0.3-0.5,0.3-0.9v-8.7
		c0-0.1,0-0.3-0.1-0.4c-0.1-0.1-0.2-0.2-0.3-0.3s-0.3-0.1-0.4-0.2c-0.2,0-0.3-0.1-0.4-0.1v-0.4h2.5l0.5,0.4
		c-0.1,0.1-0.2,0.1-0.3,0.2C95,27.5,95,27.6,95,27.7c0,0.1-0.1,0.2-0.1,0.3c0,0.1,0,0.2,0,0.2V32c0.2-0.5,0.5-0.8,0.9-1
		c0.4-0.2,0.9-0.3,1.5-0.3c0.3,0,0.6,0.1,0.8,0.2c0.3,0.1,0.5,0.3,0.7,0.5c0.2,0.2,0.4,0.5,0.5,0.9s0.2,0.8,0.2,1.3v3.2
		c0,0.3,0.1,0.6,0.3,0.8c0.2,0.3,0.4,0.4,0.7,0.4v0.4H98.1z"/>
	<path class="st4" d="M107.9,32.6c0,0.3-0.1,0.7-0.1,1.2c0,0.1,0,0.3,0,0.4c0,0.1,0,0.3,0,0.4h-5c0,1,0.3,1.8,0.7,2.4
		c0.5,0.6,1.1,0.8,1.8,0.8c0.4,0,0.8-0.1,1.2-0.4c0.4-0.2,0.6-0.6,0.7-1h0.3c0,0.1,0,0.2-0.1,0.4c0,0.2,0,0.3,0,0.5
		c0,0.1,0,0.3,0.1,0.3c-0.2,0.2-0.5,0.4-0.9,0.6s-0.8,0.2-1.3,0.2s-1-0.1-1.5-0.2c-0.5-0.2-0.9-0.4-1.3-0.7
		c-0.4-0.3-0.7-0.7-0.9-1.2s-0.3-1.1-0.3-1.7c0-0.6,0.1-1.2,0.3-1.7s0.5-0.9,0.9-1.2c0.4-0.3,0.8-0.6,1.2-0.8
		c0.5-0.2,0.9-0.3,1.4-0.3c0.4,0,0.7,0,1,0.1c0.3,0.1,0.6,0.2,0.9,0.3s0.5,0.2,0.7,0.4c0.2,0.1,0.4,0.3,0.5,0.4
		C108.1,32,107.9,32.3,107.9,32.6z M106.3,32.1c-0.1-0.2-0.2-0.3-0.4-0.5s-0.5-0.2-0.7-0.2c-0.3,0-0.6,0.1-0.9,0.2
		c-0.3,0.1-0.5,0.3-0.7,0.6c-0.2,0.2-0.3,0.5-0.5,0.8c-0.1,0.3-0.2,0.5-0.2,0.8h3.4V32.1z"/>
	<path class="st4" d="M115.4,32.2c-0.1,0.2-0.2,0.4-0.2,0.6h-0.4c0-0.4-0.1-0.8-0.4-1c-0.2-0.3-0.7-0.4-1.3-0.4
		c-0.3,0-0.6,0.1-0.7,0.2s-0.3,0.3-0.4,0.4c-0.1,0.2-0.2,0.4-0.2,0.6c0,0.2,0,0.5,0,0.7v3.3c0,0.4,0.1,0.8,0.3,1
		c0.2,0.3,0.4,0.4,0.7,0.4v0.4h-3.3V38c0.3,0,0.5-0.1,0.7-0.4c0.2-0.3,0.3-0.6,0.3-1v-2.9c0-0.6-0.1-1.1-0.3-1.3s-0.4-0.4-0.7-0.4
		v-0.4h1.4c0.1-0.2,0.2-0.3,0.4-0.4c0.2-0.1,0.4-0.2,0.6-0.3s0.5-0.1,0.7-0.2c0.3,0,0.5-0.1,0.8-0.1c0.6,0,1.1,0.1,1.5,0.3
		c0.4,0.2,0.7,0.5,1,0.8C115.7,31.8,115.5,32,115.4,32.2z"/>
	<path class="st4" d="M126.8,27.7c-0.1,0.2-0.1,0.4-0.2,0.5s-0.2,0.3-0.3,0.3c0-0.2-0.1-0.3-0.1-0.4c-0.1-0.1-0.2-0.2-0.3-0.2
		c-0.1,0-0.3-0.1-0.5-0.1c-0.2,0-0.4,0-0.6,0c-0.6,0-1.1,0.1-1.5,0.2c-0.4,0.1-0.6,0.3-0.6,0.6v3.1h2.9L126,32
		c-0.1,0-0.2,0.1-0.2,0.2c-0.1,0.1-0.1,0.2-0.2,0.4c-0.1,0.2-0.1,0.3-0.2,0.5c-0.1,0.1-0.2,0.2-0.3,0.2c0-0.3-0.1-0.5-0.3-0.6
		s-0.5-0.2-0.9-0.2c-0.1,0-0.2,0-0.3,0c-0.1,0-0.2,0-0.3,0c-0.1,0-0.2,0-0.4,0c-0.1,0-0.2,0-0.3,0c0.1,0.1,0.2,0.3,0.2,0.4
		c0,0.1,0.1,0.4,0.1,0.7c0,0.2,0,0.4,0,0.7c0,0.3,0,0.5,0,0.8c0,0.3,0,0.6,0,0.8s0,0.6,0,0.8c0,0.3,0,0.6,0,0.9
		c0,0.3,0.1,0.5,0.1,0.7c-0.2,0-0.4-0.1-0.6-0.2c-0.2-0.1-0.4-0.3-0.6-0.5c-0.2-0.2-0.4-0.3-0.6-0.4s-0.5-0.2-0.8-0.2
		c0-0.1,0-0.2,0.1-0.3c0.1-0.1,0.2-0.1,0.3-0.2c0.2-0.1,0.3-0.3,0.4-0.5c0.1-0.3,0.2-0.7,0.2-1.4v-5.7c0-0.4,0-0.6-0.1-0.8
		s-0.1-0.4-0.2-0.5c-0.1-0.1-0.1-0.2-0.2-0.2c-0.1,0-0.1-0.1-0.2-0.1c-0.1,0-0.2-0.1-0.3-0.1c-0.1-0.1-0.1-0.2-0.1-0.4h6.4l0.4,0.4
		C127,27.3,126.9,27.5,126.8,27.7z"/>
	<path class="st4" d="M134.7,31.3c-0.1,0-0.2,0.1-0.3,0.2c-0.1,0.1-0.1,0.2-0.2,0.4c0,0.2,0,0.3,0.1,0.6c0.1,0.1,0.1,0.3,0.2,0.5
		c0.1,0.2,0.1,0.4,0.1,0.6s0.1,0.4,0.1,0.6c0,0.2,0,0.3,0,0.5c0,0.6-0.1,1.2-0.3,1.7s-0.5,0.9-0.8,1.2c-0.3,0.3-0.7,0.6-1.2,0.8
		c-0.4,0.2-0.9,0.3-1.3,0.3c-0.5,0-1-0.1-1.5-0.2c-0.5-0.2-0.9-0.4-1.2-0.7s-0.6-0.7-0.8-1.2s-0.3-1.1-0.3-1.8
		c0-0.6,0.1-1.2,0.3-1.6c0.2-0.5,0.5-0.9,0.8-1.2c0.4-0.3,0.8-0.6,1.2-0.7c0.5-0.2,0.9-0.2,1.5-0.2c0.4,0,0.8,0.1,1.1,0.2
		s0.6,0.2,0.7,0.3c0,0,0.1,0,0.1-0.1c0,0,0-0.1,0.1-0.1c0,0,0-0.1,0-0.1h2v0.4C135,31.2,134.8,31.2,134.7,31.3z M133.1,33.1
		c-0.2-0.4-0.3-0.7-0.6-1s-0.5-0.4-0.8-0.5c-0.3-0.1-0.6-0.2-0.8-0.2c-0.4,0-0.7,0.1-1,0.3c-0.3,0.2-0.5,0.5-0.7,0.8
		c-0.2,0.3-0.3,0.6-0.4,1c-0.1,0.4-0.1,0.7-0.1,1c0,0.3,0,0.6,0.1,0.9c0.1,0.3,0.2,0.5,0.3,0.8c0.2,0.1,0.3,0.1,0.5,0.3
		c0.1,0.1,0.2,0.3,0.3,0.5c0.1,0.2,0.2,0.3,0.4,0.5c0.2,0.1,0.4,0.2,0.7,0.2c0.3,0,0.7-0.1,0.9-0.3c0.3-0.2,0.5-0.4,0.7-0.7
		c0.2-0.3,0.3-0.6,0.5-1s0.2-0.7,0.2-1.1C133.4,34,133.3,33.5,133.1,33.1z"/>
	<path class="st4" d="M143.5,31.3c-0.1,0-0.2,0.1-0.3,0.2c-0.1,0.1-0.1,0.2-0.2,0.4c0,0.2,0,0.3,0.1,0.6c0.1,0.1,0.1,0.3,0.2,0.5
		c0.1,0.2,0.1,0.4,0.1,0.6s0.1,0.4,0.1,0.6c0,0.2,0,0.3,0,0.5c0,0.6-0.1,1.2-0.3,1.7s-0.5,0.9-0.8,1.2c-0.3,0.3-0.7,0.6-1.2,0.8
		c-0.4,0.2-0.9,0.3-1.3,0.3c-0.5,0-1-0.1-1.5-0.2c-0.5-0.2-0.9-0.4-1.2-0.7s-0.6-0.7-0.8-1.2s-0.3-1.1-0.3-1.8
		c0-0.6,0.1-1.2,0.3-1.6c0.2-0.5,0.5-0.9,0.8-1.2c0.4-0.3,0.8-0.6,1.2-0.7c0.5-0.2,0.9-0.2,1.5-0.2c0.4,0,0.8,0.1,1.1,0.2
		s0.6,0.2,0.7,0.3c0,0,0.1,0,0.1-0.1c0,0,0-0.1,0.1-0.1c0,0,0-0.1,0-0.1h2v0.4C143.8,31.2,143.7,31.2,143.5,31.3z M141.9,33.1
		c-0.2-0.4-0.3-0.7-0.6-1s-0.5-0.4-0.8-0.5c-0.3-0.1-0.6-0.2-0.8-0.2c-0.4,0-0.7,0.1-1,0.3c-0.3,0.2-0.5,0.5-0.7,0.8
		c-0.2,0.3-0.3,0.6-0.4,1c-0.1,0.4-0.1,0.7-0.1,1c0,0.3,0,0.6,0.1,0.9c0.1,0.3,0.2,0.5,0.3,0.8c0.2,0.1,0.3,0.1,0.5,0.3
		c0.1,0.1,0.2,0.3,0.3,0.5c0.1,0.2,0.2,0.3,0.4,0.5c0.2,0.1,0.4,0.2,0.7,0.2c0.3,0,0.7-0.1,0.9-0.3c0.3-0.2,0.5-0.4,0.7-0.7
		c0.2-0.3,0.3-0.6,0.5-1s0.2-0.7,0.2-1.1C142.2,34,142.1,33.5,141.9,33.1z"/>
	<path class="st4" d="M150.1,37.3c0,0.1,0,0.2,0.1,0.4c-0.2,0.2-0.5,0.4-0.9,0.5c-0.4,0.1-0.7,0.2-1.1,0.2c-0.2,0-0.4,0-0.6-0.1
		c-0.2-0.1-0.4-0.2-0.6-0.4c-0.2-0.2-0.3-0.4-0.4-0.7c-0.1-0.3-0.2-0.7-0.2-1.1v-4.7h-1.6v-0.6c0.4,0,0.8,0,1.1-0.1
		c0.3-0.1,0.5-0.2,0.7-0.3s0.3-0.4,0.4-0.7c0.1-0.3,0.1-0.7,0.1-1.1h0.6v2.2h2.5v0.6h-1c-0.1,0-0.2,0-0.2,0.1
		c-0.1,0.1-0.2,0.1-0.2,0.2c-0.3,0.3-0.6,0.5-0.8,0.5v4.3c0,0.4,0.1,0.7,0.2,0.9c0.1,0.2,0.3,0.2,0.6,0.2c0.2,0,0.3,0,0.5-0.1
		c0.1-0.1,0.3-0.2,0.4-0.3s0.2-0.2,0.3-0.4c0.1-0.1,0.1-0.3,0.2-0.4h0.3C150.1,36.8,150.1,37.1,150.1,37.3z"/>
	<path class="st4" d="M161.6,36.6c-0.2,0.4-0.5,0.8-0.9,1.1c-0.4,0.3-0.8,0.5-1.3,0.7c-0.5,0.1-0.9,0.2-1.4,0.2c-0.3,0-0.6,0-1-0.1
		c-0.3-0.1-0.6-0.2-0.9-0.3c-0.3-0.1-0.5-0.2-0.7-0.4c-0.2-0.1-0.4-0.3-0.5-0.5c0.1-0.1,0.1-0.2,0.2-0.3c0.1-0.1,0.1-0.2,0.2-0.4
		s0.1-0.3,0.1-0.4c0-0.1,0.1-0.3,0.1-0.4c0,0,0.1,0,0.2,0c0,0.3,0.1,0.6,0.3,0.8c0.2,0.2,0.3,0.4,0.6,0.5c0.2,0.1,0.5,0.3,0.8,0.3
		s0.6,0.1,0.9,0.1c0.3,0,0.6,0,0.9-0.1s0.5-0.2,0.7-0.4c0.2-0.2,0.4-0.4,0.5-0.6s0.2-0.5,0.2-0.8c0-0.3,0-0.5-0.1-0.7
		c-0.1-0.2-0.2-0.4-0.4-0.6c-0.2-0.2-0.3-0.3-0.6-0.4c-0.2-0.1-0.4-0.3-0.7-0.4l-0.7-0.3c-0.3-0.2-0.7-0.3-1-0.5
		c-0.3-0.2-0.6-0.4-0.9-0.7c-0.3-0.3-0.5-0.6-0.6-0.9s-0.2-0.8-0.2-1.3c0-0.5,0.1-0.9,0.3-1.3s0.4-0.7,0.7-1
		c0.3-0.3,0.7-0.5,1.1-0.7c0.4-0.2,0.8-0.2,1.3-0.2c0.4,0,0.8,0,1.2,0.1c0.4,0.1,0.7,0.2,0.9,0.3c0.3,0.1,0.5,0.3,0.7,0.4
		s0.3,0.3,0.4,0.4c-0.1,0-0.1,0.1-0.2,0.2c-0.1,0.1-0.1,0.2-0.2,0.4c-0.1,0.1-0.1,0.3-0.2,0.4c0,0.1-0.1,0.3-0.1,0.4H161
		c0-0.3-0.1-0.6-0.3-0.8s-0.4-0.4-0.6-0.5c-0.2-0.1-0.5-0.3-0.8-0.3s-0.6-0.1-0.9-0.1c-0.6,0-1,0.2-1.3,0.5
		c-0.3,0.3-0.5,0.7-0.5,1.3c0,0.3,0.1,0.6,0.2,0.8c0.1,0.2,0.2,0.4,0.4,0.6c0.2,0.2,0.4,0.3,0.6,0.4s0.5,0.3,0.7,0.4l0.8,0.4
		c0.3,0.2,0.6,0.3,1,0.5c0.3,0.2,0.6,0.4,0.8,0.6c0.2,0.2,0.4,0.5,0.6,0.9c0.1,0.3,0.2,0.7,0.2,1.2
		C161.9,35.7,161.8,36.2,161.6,36.6z"/>
	<path class="st4" d="M167.8,37.3c0,0.1,0,0.2,0.1,0.4c-0.2,0.2-0.5,0.4-0.9,0.5c-0.4,0.1-0.7,0.2-1.1,0.2c-0.2,0-0.4,0-0.6-0.1
		c-0.2-0.1-0.4-0.2-0.6-0.4c-0.2-0.2-0.3-0.4-0.4-0.7c-0.1-0.3-0.2-0.7-0.2-1.1v-4.7h-1.6v-0.6c0.4,0,0.8,0,1.1-0.1
		c0.3-0.1,0.5-0.2,0.7-0.3s0.3-0.4,0.4-0.7c0.1-0.3,0.1-0.7,0.1-1.1h0.6v2.2h2.5v0.6h-1c-0.1,0-0.2,0-0.2,0.1
		c-0.1,0.1-0.2,0.1-0.2,0.2c-0.3,0.3-0.6,0.5-0.8,0.5v4.3c0,0.4,0.1,0.7,0.2,0.9c0.1,0.2,0.3,0.2,0.6,0.2c0.2,0,0.3,0,0.5-0.1
		c0.1-0.1,0.3-0.2,0.4-0.3s0.2-0.2,0.3-0.4c0.1-0.1,0.1-0.3,0.2-0.4h0.3C167.8,36.8,167.8,37.1,167.8,37.3z"/>
	<path class="st4" d="M175.9,31.4c-0.1,0.1-0.2,0.3-0.3,0.5c-0.1,0.2-0.1,0.4-0.1,0.6c0,0.2,0,0.4,0,0.6l0,6.3c0,0.2,0,0.3,0,0.5
		c0,0.2,0.1,0.4,0.1,0.6c0.1,0.2,0.2,0.3,0.3,0.4c0.1,0.1,0.3,0.2,0.5,0.2l0,0.4h-1.4c-0.1,0.2-0.3,0.4-0.5,0.5
		c-0.2,0.1-0.5,0.2-0.8,0.3s-0.6,0.1-0.8,0.2c-0.3,0-0.5,0.1-0.7,0.1c-0.2,0-0.5,0-0.8-0.1c-0.3,0-0.5-0.1-0.8-0.2
		c-0.3-0.1-0.5-0.2-0.7-0.4s-0.4-0.3-0.6-0.5c0.2-0.1,0.3-0.2,0.4-0.4c0.1-0.2,0.1-0.4,0.1-0.6h0.4c0,0.3,0.1,0.5,0.2,0.7
		c0.1,0.2,0.3,0.3,0.5,0.4c0.2,0.1,0.4,0.2,0.7,0.2c0.2,0,0.5,0.1,0.7,0.1c0.4,0,0.7-0.1,0.9-0.2s0.4-0.4,0.5-0.6
		c0.1-0.3,0.2-0.5,0.2-0.9s0-0.6,0-1c0-0.2,0-0.4,0-0.6c0-0.2,0-0.4,0-0.5c-0.3,0.3-0.6,0.5-0.8,0.5c-0.3,0.1-0.7,0.1-1.1,0.1
		c-0.3,0-0.6-0.1-0.9-0.2c-0.3-0.1-0.5-0.3-0.7-0.6s-0.4-0.5-0.5-0.8c-0.1-0.3-0.2-0.7-0.2-1.1v-3.3c0-0.4-0.1-0.8-0.3-1
		c-0.2-0.2-0.5-0.3-0.7-0.3v-0.4h2.5l0.4,0.4c-0.2,0.1-0.3,0.2-0.4,0.4c-0.1,0.2-0.1,0.5-0.1,0.9v3.1c0,0.6,0.1,1.1,0.3,1.4
		c0.2,0.4,0.5,0.5,0.9,0.5c0.3,0,0.5-0.1,0.7-0.2s0.3-0.3,0.4-0.5c0.1-0.1,0.1-0.2,0.3-0.3c0.1-0.1,0.2-0.2,0.4-0.2v-3.9
		c0-0.4-0.1-0.7-0.2-0.9c-0.1-0.3-0.3-0.4-0.4-0.4l0.5-0.3h2.6v0.4C176.2,31.2,176.1,31.3,175.9,31.4z"/>
	<path class="st4" d="M178,38.4l-0.5-0.4c0.4-0.1,0.6-0.6,0.6-1.7v-8.3c0-0.1,0-0.3-0.1-0.4c-0.1-0.1-0.2-0.2-0.3-0.3
		s-0.3-0.1-0.4-0.2c-0.1,0-0.3-0.1-0.4-0.1v-0.4h2.5c0.1,0,0.1,0.1,0.2,0.2c0.1,0.1,0.2,0.1,0.2,0.2c-0.1,0.1-0.2,0.1-0.3,0.2
		c-0.1,0.1-0.1,0.2-0.1,0.4c0,0.1-0.1,0.2-0.1,0.3c0,0.1,0,0.2,0,0.2v3.8c0,0.3,0.1,0.5,0.2,0.8c0.1,0.1,0.1,0.3,0.1,0.4
		c0,0.2,0.1,0.4,0.1,0.6v2.9c0,0.3,0.1,0.6,0.3,0.8c0.2,0.3,0.4,0.4,0.8,0.4v0.4H178z"/>
	<path class="st4" d="M188,32.6c0,0.3-0.1,0.7-0.1,1.2c0,0.1,0,0.3,0,0.4c0,0.1,0,0.3,0,0.4h-5c0,1,0.3,1.8,0.7,2.4
		c0.5,0.6,1.1,0.8,1.8,0.8c0.4,0,0.8-0.1,1.2-0.4c0.4-0.2,0.6-0.6,0.7-1h0.3c0,0.1,0,0.2-0.1,0.4c0,0.2,0,0.3,0,0.5
		c0,0.1,0,0.3,0.1,0.3c-0.2,0.2-0.5,0.4-0.9,0.6s-0.8,0.2-1.3,0.2s-1-0.1-1.5-0.2c-0.5-0.2-0.9-0.4-1.3-0.7
		c-0.4-0.3-0.7-0.7-0.9-1.2s-0.3-1.1-0.3-1.7c0-0.6,0.1-1.2,0.3-1.7s0.5-0.9,0.9-1.2c0.4-0.3,0.8-0.6,1.2-0.8
		c0.5-0.2,0.9-0.3,1.4-0.3c0.4,0,0.7,0,1,0.1c0.3,0.1,0.6,0.2,0.9,0.3s0.5,0.2,0.7,0.4c0.2,0.1,0.4,0.3,0.5,0.4
		C188.2,32,188,32.3,188,32.6z M186.4,32.1c-0.1-0.2-0.2-0.3-0.4-0.5s-0.5-0.2-0.7-0.2c-0.3,0-0.6,0.1-0.9,0.2
		c-0.3,0.1-0.5,0.3-0.7,0.6c-0.2,0.2-0.3,0.5-0.5,0.8c-0.1,0.3-0.2,0.5-0.2,0.8h3.4V32.1z"/>
</g>
<g>
	<path class="st4" d="M109,43.3l-0.5,0.3c-0.3-0.3-0.6-0.6-0.9-0.7s-0.7-0.3-1.2-0.3c-0.5,0-0.9,0.1-1.3,0.3s-0.7,0.5-0.9,0.9
		s-0.3,0.8-0.3,1.3c0,0.7,0.2,1.3,0.7,1.8s1.1,0.7,1.8,0.7c0.8,0,1.5-0.3,2-0.9L109,47c-0.3,0.4-0.6,0.6-1.1,0.8s-0.9,0.3-1.4,0.3
		c-1,0-1.8-0.3-2.4-1c-0.5-0.6-0.7-1.2-0.7-2c0-0.8,0.3-1.5,0.9-2.1s1.3-0.9,2.2-0.9c0.5,0,1,0.1,1.5,0.3S108.7,42.9,109,43.3z"/>
	<path class="st4" d="M112,43.6c0.7,0,1.2,0.2,1.6,0.7c0.4,0.4,0.6,0.9,0.6,1.5c0,0.6-0.2,1.1-0.6,1.6c-0.4,0.4-0.9,0.7-1.6,0.7
		c-0.7,0-1.2-0.2-1.6-0.7s-0.6-1-0.6-1.6c0-0.6,0.2-1.1,0.6-1.5C110.8,43.9,111.3,43.6,112,43.6z M112,44.1c-0.5,0-0.8,0.2-1.2,0.5
		c-0.3,0.3-0.5,0.7-0.5,1.2c0,0.3,0.1,0.6,0.2,0.9c0.1,0.3,0.4,0.5,0.6,0.6s0.5,0.2,0.8,0.2s0.6-0.1,0.8-0.2s0.5-0.3,0.6-0.6
		s0.2-0.6,0.2-0.9c0-0.5-0.2-0.9-0.5-1.2C112.8,44.3,112.5,44.1,112,44.1z"/>
	<path class="st4" d="M114.9,43.7h0.6v0.6c0.2-0.2,0.3-0.4,0.5-0.5s0.4-0.2,0.6-0.2c0.2,0,0.3,0,0.5,0.1l-0.3,0.5
		c-0.1,0-0.2-0.1-0.3-0.1c-0.2,0-0.4,0.1-0.5,0.2s-0.3,0.4-0.4,0.7c-0.1,0.2-0.1,0.7-0.1,1.5V48h-0.6V43.7z"/>
	<path class="st4" d="M121.1,46.6l0.5,0.2c-0.2,0.3-0.3,0.5-0.5,0.7s-0.4,0.3-0.7,0.4c-0.2,0.1-0.5,0.1-0.8,0.1
		c-0.7,0-1.2-0.2-1.6-0.7s-0.6-1-0.6-1.5c0-0.5,0.2-1,0.5-1.4c0.4-0.5,1-0.8,1.7-0.8c0.7,0,1.3,0.3,1.7,0.8c0.3,0.4,0.5,0.9,0.5,1.5
		h-3.8c0,0.5,0.2,0.9,0.5,1.2c0.3,0.3,0.7,0.5,1.1,0.5c0.2,0,0.4,0,0.6-0.1c0.2-0.1,0.4-0.2,0.5-0.3C120.7,47,120.9,46.8,121.1,46.6
		z M121.1,45.4c-0.1-0.3-0.2-0.5-0.3-0.7s-0.3-0.3-0.6-0.4s-0.5-0.2-0.7-0.2c-0.4,0-0.8,0.1-1.1,0.4c-0.2,0.2-0.4,0.5-0.5,0.9H121.1
		z"/>
	<path class="st4" d="M123.1,46.9l0.5,0.3l-0.8,1.5l-0.4-0.2L123.1,46.9z"/>
	<path class="st4" d="M126.9,43.7h0.5v0.8c0.2-0.3,0.5-0.5,0.7-0.7c0.3-0.1,0.6-0.2,0.9-0.2c0.6,0,1.1,0.2,1.5,0.7s0.6,1,0.6,1.6
		c0,0.6-0.2,1.2-0.6,1.6s-0.9,0.7-1.5,0.7c-0.3,0-0.6-0.1-0.9-0.2c-0.3-0.1-0.5-0.4-0.8-0.6v2.3h-0.5V43.7z M129.1,44.1
		c-0.5,0-0.9,0.2-1.2,0.5c-0.3,0.3-0.5,0.7-0.5,1.2c0,0.3,0.1,0.6,0.2,0.9s0.4,0.5,0.6,0.6c0.3,0.2,0.6,0.2,0.9,0.2
		c0.3,0,0.6-0.1,0.8-0.2c0.3-0.2,0.5-0.4,0.6-0.6s0.2-0.6,0.2-0.9c0-0.3-0.1-0.6-0.2-0.9s-0.4-0.5-0.6-0.6
		C129.6,44.2,129.4,44.1,129.1,44.1z"/>
	<path class="st4" d="M132.8,47.1c0.1,0,0.2,0,0.3,0.1s0.1,0.2,0.1,0.3c0,0.1,0,0.2-0.1,0.3s-0.2,0.1-0.3,0.1s-0.2,0-0.3-0.1
		s-0.1-0.2-0.1-0.3c0-0.1,0-0.3,0.1-0.3S132.7,47.1,132.8,47.1z"/>
	<path class="st4" d="M136.8,44h-0.6c0-0.6,0.2-1,0.6-1.4s0.8-0.5,1.3-0.5c0.5,0,1,0.2,1.3,0.5c0.3,0.3,0.5,0.7,0.5,1.2
		c0,0.3-0.1,0.6-0.2,0.9c-0.2,0.3-0.5,0.7-0.9,1.2l-1.4,1.5h2.7V48h-3.9l2.2-2.4c0.4-0.5,0.7-0.8,0.9-1.1c0.1-0.2,0.2-0.5,0.2-0.7
		c0-0.3-0.1-0.6-0.4-0.8c-0.2-0.2-0.5-0.4-0.9-0.4c-0.4,0-0.7,0.1-0.9,0.4S136.9,43.6,136.8,44z"/>
	<path class="st4" d="M143.2,42.1l0.5,0.3l-1.6,2.4c0.2-0.1,0.4-0.1,0.6-0.1c0.5,0,0.8,0.2,1.2,0.5c0.3,0.3,0.5,0.7,0.5,1.2
		c0,0.3-0.1,0.6-0.2,0.9c-0.2,0.3-0.4,0.5-0.7,0.6s-0.6,0.2-0.9,0.2c-0.3,0-0.6-0.1-0.9-0.2c-0.3-0.2-0.5-0.4-0.6-0.6
		c-0.2-0.3-0.2-0.6-0.2-0.9c0-0.2,0-0.5,0.1-0.7s0.3-0.6,0.5-0.9L143.2,42.1z M142.6,45.1c-0.3,0-0.6,0.1-0.9,0.4s-0.4,0.5-0.4,0.9
		c0,0.3,0.1,0.6,0.4,0.9c0.2,0.2,0.5,0.4,0.9,0.4s0.6-0.1,0.9-0.4c0.2-0.2,0.4-0.5,0.4-0.9c0-0.3-0.1-0.6-0.4-0.9
		C143.2,45.3,142.9,45.1,142.6,45.1z"/>
	<path class="st4" d="M145.7,43.6h-0.6c0.1-0.5,0.3-0.8,0.6-1.1s0.7-0.4,1.1-0.4c0.3,0,0.6,0.1,0.8,0.2s0.5,0.3,0.6,0.6
		s0.2,0.5,0.2,0.7c0,0.5-0.2,0.9-0.7,1.2c0.3,0.1,0.5,0.3,0.7,0.5c0.3,0.3,0.4,0.6,0.4,1c0,0.3-0.1,0.6-0.3,0.9s-0.4,0.5-0.7,0.7
		s-0.6,0.2-1,0.2c-0.5,0-0.9-0.1-1.2-0.4s-0.5-0.7-0.6-1.3h0.6c0.1,0.4,0.2,0.6,0.4,0.8c0.2,0.2,0.5,0.3,0.9,0.3
		c0.4,0,0.8-0.1,1-0.4s0.4-0.5,0.4-0.9c0-0.2-0.1-0.4-0.2-0.6s-0.3-0.3-0.5-0.4s-0.5-0.2-1-0.2v-0.5c0.3,0,0.5,0,0.7-0.1
		s0.4-0.2,0.5-0.4s0.1-0.3,0.1-0.5c0-0.3-0.1-0.5-0.3-0.6s-0.5-0.3-0.8-0.3c-0.2,0-0.5,0.1-0.6,0.2S145.8,43.2,145.7,43.6z"/>
</g>
<g>
	<path class="st4" d="M22.1,60C22,59,22,58,22,57.1h0c-0.2,0.8-0.5,1.6-0.8,2.6L20,62.9h-0.6l-1.1-3.2c-0.3-1-0.6-1.8-0.7-2.6h0
		c0,0.9-0.1,1.9-0.1,3L17.2,63h-0.8l0.5-6.7H18l1.1,3.3c0.3,0.8,0.5,1.6,0.7,2.3h0c0.2-0.7,0.4-1.4,0.7-2.3l1.2-3.3h1.1l0.4,6.7
		h-0.8L22.1,60z"/>
	<path class="st4" d="M26.5,63.1c-0.6,0-1.2-0.2-1.6-0.7c-0.4-0.4-0.7-1-0.7-1.8c0-0.8,0.2-1.5,0.7-1.9c0.4-0.4,1-0.7,1.6-0.7
		c0.7,0,1.2,0.2,1.6,0.7c0.4,0.4,0.6,1,0.6,1.8c0,0.9-0.3,1.5-0.7,2C27.6,62.9,27.1,63.1,26.5,63.1L26.5,63.1z M26.5,62.4
		c0.4,0,0.8-0.2,1-0.5c0.3-0.3,0.4-0.8,0.4-1.4c0-0.4-0.1-0.9-0.3-1.2c-0.2-0.4-0.6-0.6-1.1-0.6c-0.5,0-0.9,0.2-1.1,0.6
		c-0.2,0.4-0.4,0.8-0.4,1.3c0,0.5,0.1,1,0.4,1.3C25.7,62.2,26.1,62.4,26.5,62.4L26.5,62.4z"/>
	<path class="st4" d="M30.2,58.1l0.9,2.7c0.2,0.4,0.3,0.9,0.4,1.3h0c0.1-0.4,0.2-0.8,0.4-1.3l0.9-2.7h0.9L31.9,63h-0.8l-1.8-4.8
		H30.2z"/>
	<path class="st4" d="M34.9,60.7c0,0.6,0.2,1,0.5,1.3c0.3,0.3,0.7,0.4,1.1,0.4c0.2,0,0.3,0,0.4,0c0.1,0,0.2,0,0.4,0
		c0.2,0,0.4-0.1,0.5-0.2l0.2,0.6c-0.1,0.1-0.3,0.1-0.6,0.2c-0.3,0.1-0.6,0.1-1,0.1c-0.7,0-1.3-0.2-1.7-0.7c-0.4-0.4-0.6-1-0.6-1.8
		c0-0.8,0.2-1.4,0.6-1.9c0.4-0.5,0.9-0.7,1.6-0.8c0.4,0,0.7,0.1,0.9,0.2c0.3,0.2,0.4,0.3,0.6,0.6c0.1,0.2,0.2,0.5,0.3,0.7
		c0.1,0.3,0.1,0.5,0.1,0.7c0,0.2,0,0.3,0,0.4L34.9,60.7z M37.4,60.1c0-0.3-0.1-0.6-0.2-0.9c-0.1-0.1-0.2-0.3-0.4-0.4
		c-0.2-0.1-0.4-0.1-0.6-0.1c-0.4,0-0.8,0.2-0.9,0.5c-0.1,0.1-0.2,0.3-0.2,0.5c0,0.1-0.1,0.2-0.1,0.2c0,0.1,0,0.2,0,0.3H37.4z"/>
	<path class="st4" d="M43.3,63.1c-0.6,0-1.2-0.2-1.6-0.7c-0.4-0.4-0.7-1-0.7-1.8c0-0.8,0.2-1.5,0.7-1.9c0.4-0.4,1-0.7,1.6-0.7
		c0.7,0,1.2,0.2,1.6,0.7c0.4,0.4,0.6,1,0.6,1.8c0,0.9-0.3,1.5-0.7,2C44.4,62.9,43.9,63.1,43.3,63.1L43.3,63.1z M43.3,62.4
		c0.4,0,0.8-0.2,1-0.5c0.3-0.3,0.4-0.8,0.4-1.4c0-0.4-0.1-0.9-0.3-1.2c-0.2-0.4-0.6-0.6-1.1-0.6c-0.5,0-0.9,0.2-1.1,0.6
		c-0.2,0.4-0.4,0.8-0.4,1.3c0,0.5,0.1,1,0.4,1.3C42.6,62.2,42.9,62.4,43.3,62.4L43.3,62.4z"/>
	<path class="st4" d="M46.8,59.4c0-0.5,0-0.9,0-1.3h0.8l0,0.8h0c0.1-0.2,0.3-0.4,0.6-0.6c0.3-0.2,0.6-0.3,1-0.3c0.2,0,0.4,0,0.5,0.1
		c0.2,0.1,0.4,0.2,0.5,0.3c0.2,0.1,0.3,0.4,0.4,0.6c0.1,0.3,0.2,0.6,0.2,1V63h-0.8v-2.8c0-0.4-0.1-0.7-0.2-1
		c-0.2-0.3-0.5-0.4-0.9-0.4c-0.3,0-0.5,0.1-0.7,0.3c-0.2,0.2-0.4,0.4-0.4,0.6c0,0.1-0.1,0.3-0.1,0.4V63h-0.8V59.4z"/>
	<path class="st4" d="M54.7,57.2c-0.2,0-0.3-0.1-0.4-0.2c-0.1-0.1-0.2-0.2-0.2-0.4c0-0.2,0.1-0.3,0.2-0.4c0.1-0.1,0.2-0.2,0.4-0.2
		c0.2,0,0.3,0.1,0.4,0.2c0.1,0.1,0.1,0.2,0.1,0.4c0,0.2,0,0.3-0.1,0.4C55,57.2,54.8,57.2,54.7,57.2L54.7,57.2z M54.2,63v-4.8h0.8V63
		H54.2z"/>
	<path class="st4" d="M56.4,59.4c0-0.5,0-0.9,0-1.3h0.8l0,0.8h0c0.1-0.2,0.3-0.4,0.6-0.6c0.2-0.2,0.6-0.3,1-0.3
		c0.3,0,0.6,0.1,0.8,0.3c0.2,0.2,0.4,0.4,0.5,0.7h0c0.2-0.3,0.3-0.5,0.5-0.6c0.1-0.1,0.3-0.2,0.5-0.3c0.2-0.1,0.4-0.1,0.6-0.1
		c0.2,0,0.3,0,0.5,0.1c0.2,0.1,0.4,0.2,0.5,0.3c0.2,0.2,0.3,0.4,0.4,0.6c0.1,0.3,0.2,0.6,0.2,1V63h-0.8v-2.7c0-1-0.4-1.5-1.1-1.5
		c-0.3,0-0.5,0.1-0.7,0.2c-0.2,0.2-0.3,0.3-0.4,0.6c0,0.1-0.1,0.3-0.1,0.4v3h-0.8v-2.9c0-0.4-0.1-0.7-0.3-1
		c-0.2-0.2-0.4-0.4-0.8-0.4c-0.3,0-0.5,0.1-0.7,0.3c-0.2,0.2-0.3,0.4-0.4,0.6c0,0.1-0.1,0.3-0.1,0.4V63h-0.8V59.4z"/>
	<path class="st4" d="M64.7,59.7c0-0.6,0-1.1,0-1.6h0.8l0,0.8h0c0.3-0.6,0.9-0.9,1.7-0.9c0.6,0,1.1,0.2,1.4,0.7
		c0.4,0.4,0.6,1,0.6,1.8c0,0.9-0.2,1.5-0.6,1.9c-0.4,0.4-0.9,0.7-1.5,0.7c-0.7,0-1.1-0.3-1.4-0.8h0V65h-0.8V59.7z M65.6,61
		c0,0.1,0,0.2,0,0.4c0.1,0.3,0.2,0.6,0.5,0.7c0.2,0.2,0.5,0.3,0.8,0.3c0.5,0,0.8-0.2,1.1-0.5c0.2-0.3,0.4-0.8,0.4-1.4
		c0-0.5-0.1-0.9-0.4-1.3c-0.2-0.3-0.6-0.5-1-0.5c-0.3,0-0.6,0.1-0.8,0.3c-0.2,0.2-0.4,0.5-0.5,0.8c0,0.1,0,0.2,0,0.4V61z"/>
	<path class="st4" d="M72.2,63.1c-0.6,0-1.2-0.2-1.6-0.7c-0.4-0.4-0.7-1-0.7-1.8c0-0.8,0.2-1.5,0.7-1.9c0.4-0.4,1-0.7,1.6-0.7
		c0.7,0,1.2,0.2,1.6,0.7c0.4,0.4,0.6,1,0.6,1.8c0,0.9-0.3,1.5-0.7,2C73.4,62.9,72.8,63.1,72.2,63.1L72.2,63.1z M72.3,62.4
		c0.4,0,0.8-0.2,1-0.5c0.3-0.3,0.4-0.8,0.4-1.4c0-0.4-0.1-0.9-0.3-1.2c-0.2-0.4-0.6-0.6-1.1-0.6c-0.5,0-0.9,0.2-1.1,0.6
		c-0.2,0.4-0.4,0.8-0.4,1.3c0,0.5,0.1,1,0.4,1.3C71.5,62.2,71.8,62.4,72.3,62.4L72.3,62.4z"/>
	<path class="st4" d="M75.6,62.1c0.1,0.1,0.3,0.2,0.5,0.2c0.2,0.1,0.4,0.1,0.6,0.1c0.3,0,0.5-0.1,0.7-0.2c0.1-0.1,0.2-0.3,0.2-0.5
		c0-0.2-0.1-0.4-0.2-0.5c-0.1-0.1-0.4-0.3-0.7-0.4c-0.8-0.3-1.3-0.8-1.3-1.4c0-0.4,0.1-0.7,0.4-1c0.3-0.3,0.7-0.4,1.2-0.4
		c0.5,0,0.9,0.1,1.1,0.3l-0.2,0.6c-0.1-0.1-0.2-0.1-0.4-0.2c-0.2-0.1-0.4-0.1-0.6-0.1c-0.2,0-0.4,0.1-0.6,0.2
		c-0.1,0.1-0.2,0.3-0.2,0.5c0,0.2,0.1,0.3,0.2,0.5c0.1,0.1,0.4,0.2,0.7,0.4c0.8,0.3,1.2,0.8,1.2,1.5c0,0.4-0.2,0.8-0.5,1.1
		c-0.3,0.3-0.7,0.4-1.3,0.4c-0.5,0-1-0.1-1.3-0.3L75.6,62.1z"/>
	<path class="st4" d="M79.5,62.1c0.1,0.1,0.3,0.2,0.5,0.2c0.2,0.1,0.4,0.1,0.6,0.1c0.3,0,0.5-0.1,0.7-0.2c0.1-0.1,0.2-0.3,0.2-0.5
		c0-0.2-0.1-0.4-0.2-0.5c-0.1-0.1-0.4-0.3-0.7-0.4c-0.8-0.3-1.3-0.8-1.3-1.4c0-0.4,0.1-0.7,0.4-1c0.3-0.3,0.7-0.4,1.2-0.4
		c0.5,0,0.9,0.1,1.1,0.3l-0.2,0.6c-0.1-0.1-0.2-0.1-0.4-0.2c-0.2-0.1-0.4-0.1-0.6-0.1c-0.2,0-0.4,0.1-0.6,0.2
		c-0.1,0.1-0.2,0.3-0.2,0.5c0,0.2,0.1,0.3,0.2,0.5c0.1,0.1,0.4,0.2,0.7,0.4c0.8,0.3,1.2,0.8,1.2,1.5c0,0.4-0.2,0.8-0.5,1.1
		c-0.3,0.3-0.7,0.4-1.3,0.4c-0.5,0-1-0.1-1.3-0.3L79.5,62.1z"/>
	<path class="st4" d="M83.8,57.2c-0.2,0-0.3-0.1-0.4-0.2c-0.1-0.1-0.2-0.2-0.2-0.4c0-0.2,0.1-0.3,0.2-0.4c0.1-0.1,0.2-0.2,0.4-0.2
		c0.2,0,0.3,0.1,0.4,0.2c0.1,0.1,0.1,0.2,0.1,0.4c0,0.2,0,0.3-0.1,0.4C84.2,57.2,84,57.2,83.8,57.2L83.8,57.2z M83.4,63v-4.8h0.8V63
		H83.4z"/>
	<path class="st4" d="M85.7,55.9h0.8v3h0c0.3-0.6,0.8-0.9,1.6-0.9c0.6,0,1.1,0.2,1.4,0.7c0.4,0.4,0.5,1,0.5,1.8
		c0,0.9-0.2,1.5-0.7,1.9c-0.4,0.4-0.9,0.7-1.5,0.7c-0.7,0-1.2-0.3-1.6-0.9h0l0,0.8h-0.7c0-0.4,0-0.8,0-1.2V55.9z M86.5,61
		c0,0.1,0,0.2,0,0.3c0.1,0.3,0.3,0.6,0.5,0.7c0.2,0.2,0.5,0.3,0.8,0.3c0.5,0,0.8-0.2,1.1-0.5c0.2-0.3,0.4-0.8,0.4-1.4
		c0-0.5-0.1-0.9-0.4-1.3c-0.2-0.3-0.6-0.5-1-0.5c-0.3,0-0.6,0.1-0.8,0.3c-0.2,0.2-0.4,0.5-0.5,0.8c0,0.1,0,0.2,0,0.4V61z"/>
	<path class="st4" d="M91.3,55.9h0.8V63h-0.8V55.9z"/>
	<path class="st4" d="M93.8,58.1l1,2.9c0.1,0.3,0.2,0.7,0.3,1h0c0.1-0.3,0.2-0.6,0.3-1l0.9-2.8h0.9L96,61.6c-0.5,1.6-1.1,2.6-1.6,3
		c-0.2,0.2-0.4,0.3-0.6,0.4c-0.2,0.1-0.3,0.1-0.4,0.2l-0.2-0.7c0.2-0.1,0.5-0.2,0.7-0.4c0.3-0.2,0.5-0.5,0.7-1
		c0-0.1,0.1-0.2,0.1-0.2c0,0,0-0.1-0.1-0.2l-1.7-4.5H93.8z"/>
	<path class="st4" d="M101.2,57v1.2h1.2v0.7h-1.2v2.6c0,0.6,0.2,0.9,0.6,0.9c0.2,0,0.4,0,0.5-0.1l0,0.7c-0.2,0.1-0.4,0.1-0.8,0.1
		c-0.4,0-0.7-0.1-0.9-0.4c-0.2-0.3-0.3-0.7-0.3-1.3v-2.6h-0.7v-0.7h0.7v-0.9L101.2,57z"/>
	<path class="st4" d="M103.3,55.9h0.8v3h0c0.1-0.3,0.3-0.5,0.6-0.6c0.3-0.2,0.5-0.3,0.9-0.3c0.2,0,0.3,0,0.5,0.1
		c0.2,0.1,0.4,0.2,0.5,0.3c0.2,0.1,0.3,0.4,0.4,0.6c0.1,0.3,0.2,0.6,0.2,1V63h-0.8v-2.8c0-0.4-0.1-0.8-0.2-1
		c-0.2-0.3-0.5-0.4-0.9-0.4c-0.3,0-0.5,0.1-0.7,0.3c-0.2,0.2-0.3,0.4-0.4,0.6c0,0.1-0.1,0.3-0.1,0.4V63h-0.8V55.9z"/>
	<path class="st4" d="M109.2,57.2c-0.2,0-0.3-0.1-0.4-0.2c-0.1-0.1-0.2-0.2-0.2-0.4c0-0.2,0.1-0.3,0.2-0.4c0.1-0.1,0.2-0.2,0.4-0.2
		c0.2,0,0.3,0.1,0.4,0.2c0.1,0.1,0.1,0.2,0.1,0.4c0,0.2,0,0.3-0.1,0.4C109.5,57.2,109.4,57.2,109.2,57.2L109.2,57.2z M108.8,63v-4.8
		h0.8V63H108.8z"/>
	<path class="st4" d="M111,59.4c0-0.5,0-0.9,0-1.3h0.8l0,0.8h0c0.1-0.2,0.3-0.4,0.6-0.6c0.3-0.2,0.6-0.3,1-0.3c0.2,0,0.4,0,0.5,0.1
		c0.2,0.1,0.4,0.2,0.5,0.3c0.2,0.1,0.3,0.4,0.4,0.6c0.1,0.3,0.2,0.6,0.2,1V63h-0.8v-2.8c0-0.4-0.1-0.7-0.2-1
		c-0.2-0.3-0.5-0.4-0.9-0.4c-0.3,0-0.5,0.1-0.7,0.3c-0.2,0.2-0.4,0.4-0.4,0.6c0,0.1-0.1,0.3-0.1,0.4V63H111V59.4z"/>
	<path class="st4" d="M118.4,59.4c0-0.5,0-0.9,0-1.3h0.8l0,0.8h0c0.1-0.2,0.3-0.4,0.6-0.6c0.2-0.2,0.6-0.3,1-0.3
		c0.3,0,0.6,0.1,0.8,0.3c0.2,0.2,0.4,0.4,0.5,0.7h0c0.2-0.3,0.3-0.5,0.5-0.6c0.1-0.1,0.3-0.2,0.5-0.3c0.2-0.1,0.4-0.1,0.6-0.1
		c0.2,0,0.3,0,0.5,0.1c0.2,0.1,0.4,0.2,0.5,0.3c0.2,0.2,0.3,0.4,0.4,0.6c0.1,0.3,0.2,0.6,0.2,1V63h-0.8v-2.7c0-1-0.4-1.5-1.1-1.5
		c-0.3,0-0.5,0.1-0.7,0.2c-0.2,0.2-0.3,0.3-0.4,0.6c0,0.1-0.1,0.3-0.1,0.4v3h-0.8v-2.9c0-0.4-0.1-0.7-0.3-1
		c-0.2-0.2-0.4-0.4-0.8-0.4c-0.3,0-0.5,0.1-0.7,0.3c-0.2,0.2-0.3,0.4-0.4,0.6c0,0.1-0.1,0.3-0.1,0.4V63h-0.8V59.4z"/>
	<path class="st4" d="M130,61.8c0,0.4,0,0.8,0.1,1.2h-0.8l-0.1-0.6h0c-0.1,0.2-0.3,0.4-0.6,0.5s-0.5,0.2-0.9,0.2
		c-0.5,0-0.8-0.2-1.1-0.4c-0.2-0.3-0.4-0.6-0.4-0.9c0-1.2,1-1.8,2.8-1.8v-0.1c0-0.1,0-0.2,0-0.4c0-0.1-0.1-0.2-0.1-0.4
		c-0.1-0.1-0.2-0.2-0.3-0.3c-0.1-0.1-0.3-0.1-0.6-0.1c-0.5,0-0.9,0.1-1.2,0.4l-0.2-0.6c0.4-0.3,0.9-0.4,1.6-0.4
		c0.4,0,0.7,0.1,0.9,0.2c0.2,0.1,0.4,0.3,0.5,0.5c0.1,0.2,0.2,0.4,0.3,0.6c0,0.2,0.1,0.5,0.1,0.7V61.8z M129.2,60.5
		c-0.2,0-0.5,0-0.7,0c-0.2,0-0.4,0.1-0.6,0.2c-0.2,0.1-0.3,0.2-0.5,0.3c-0.1,0.1-0.2,0.3-0.2,0.6c0,0.3,0.1,0.5,0.2,0.6
		c0.1,0.1,0.3,0.2,0.6,0.2c0.3,0,0.6-0.1,0.8-0.3c0.2-0.2,0.3-0.3,0.4-0.5c0-0.1,0-0.2,0-0.3V60.5z"/>
	<path class="st4" d="M132.4,57v1.2h1.2v0.7h-1.2v2.6c0,0.6,0.2,0.9,0.6,0.9c0.2,0,0.4,0,0.5-0.1l0,0.7c-0.2,0.1-0.4,0.1-0.8,0.1
		c-0.4,0-0.7-0.1-0.9-0.4c-0.2-0.3-0.3-0.7-0.3-1.3v-2.6h-0.7v-0.7h0.7v-0.9L132.4,57z"/>
	<path class="st4" d="M135.1,60.7c0,0.6,0.2,1,0.5,1.3c0.3,0.3,0.7,0.4,1.1,0.4c0.2,0,0.3,0,0.4,0c0.1,0,0.2,0,0.4,0
		c0.2,0,0.4-0.1,0.5-0.2l0.2,0.6c-0.1,0.1-0.3,0.1-0.6,0.2c-0.3,0.1-0.6,0.1-1,0.1c-0.7,0-1.3-0.2-1.7-0.7c-0.4-0.4-0.6-1-0.6-1.8
		c0-0.8,0.2-1.4,0.6-1.9c0.4-0.5,0.9-0.7,1.6-0.8c0.4,0,0.7,0.1,0.9,0.2c0.3,0.2,0.4,0.3,0.6,0.6c0.1,0.2,0.2,0.5,0.3,0.7
		c0.1,0.3,0.1,0.5,0.1,0.7c0,0.2,0,0.3,0,0.4L135.1,60.7z M137.5,60.1c0-0.3-0.1-0.6-0.2-0.9c-0.1-0.1-0.2-0.3-0.4-0.4
		c-0.2-0.1-0.4-0.1-0.6-0.1c-0.4,0-0.8,0.2-0.9,0.5c-0.1,0.1-0.2,0.3-0.2,0.5c0,0.1-0.1,0.2-0.1,0.2c0,0.1,0,0.2,0,0.3H137.5z"/>
	<path class="st4" d="M139.5,59.6c0-0.6,0-1.1,0-1.5h0.7l0,0.9h0c0.1-0.3,0.3-0.6,0.5-0.8c0.2-0.2,0.5-0.3,0.8-0.3
		c0.1,0,0.2,0,0.2,0v0.8c-0.1,0-0.2,0-0.3,0c-0.3,0-0.6,0.1-0.7,0.3c-0.2,0.2-0.3,0.5-0.4,0.8c0,0.1,0,0.3,0,0.4V63h-0.9L139.5,59.6
		z"/>
	<path class="st4" d="M143.1,57.2c-0.2,0-0.3-0.1-0.4-0.2c-0.1-0.1-0.2-0.2-0.2-0.4c0-0.2,0.1-0.3,0.2-0.4c0.1-0.1,0.2-0.2,0.4-0.2
		c0.2,0,0.3,0.1,0.4,0.2c0.1,0.1,0.1,0.2,0.1,0.4c0,0.2,0,0.3-0.1,0.4C143.4,57.2,143.3,57.2,143.1,57.2L143.1,57.2z M142.7,63v-4.8
		h0.8V63H142.7z"/>
	<path class="st4" d="M148.2,61.8c0,0.4,0,0.8,0.1,1.2h-0.8l-0.1-0.6h0c-0.1,0.2-0.3,0.4-0.6,0.5s-0.5,0.2-0.9,0.2
		c-0.5,0-0.8-0.2-1.1-0.4c-0.2-0.3-0.4-0.6-0.4-0.9c0-1.2,1-1.8,2.8-1.8v-0.1c0-0.1,0-0.2,0-0.4c0-0.1-0.1-0.2-0.1-0.4
		c-0.1-0.1-0.2-0.2-0.3-0.3c-0.1-0.1-0.3-0.1-0.6-0.1c-0.5,0-0.9,0.1-1.2,0.4l-0.2-0.6c0.4-0.3,0.9-0.4,1.6-0.4
		c0.4,0,0.7,0.1,0.9,0.2c0.2,0.1,0.4,0.3,0.5,0.5c0.1,0.2,0.2,0.4,0.3,0.6c0,0.2,0.1,0.5,0.1,0.7V61.8z M147.4,60.5
		c-0.2,0-0.5,0-0.7,0c-0.2,0-0.4,0.1-0.6,0.2c-0.2,0.1-0.3,0.2-0.5,0.3c-0.1,0.1-0.2,0.3-0.2,0.6c0,0.3,0.1,0.5,0.2,0.6
		c0.1,0.1,0.3,0.2,0.6,0.2c0.3,0,0.6-0.1,0.8-0.3c0.2-0.2,0.3-0.3,0.4-0.5c0-0.1,0-0.2,0-0.3V60.5z"/>
	<path class="st4" d="M149.7,55.9h0.8V63h-0.8V55.9z"/>
	<path class="st4" d="M151.8,62.1c0.1,0.1,0.3,0.2,0.5,0.2c0.2,0.1,0.4,0.1,0.6,0.1c0.3,0,0.5-0.1,0.7-0.2c0.1-0.1,0.2-0.3,0.2-0.5
		c0-0.2-0.1-0.4-0.2-0.5c-0.1-0.1-0.4-0.3-0.7-0.4c-0.8-0.3-1.3-0.8-1.3-1.4c0-0.4,0.1-0.7,0.4-1c0.3-0.3,0.7-0.4,1.2-0.4
		c0.5,0,0.9,0.1,1.1,0.3l-0.2,0.6c-0.1-0.1-0.2-0.1-0.4-0.2c-0.2-0.1-0.4-0.1-0.6-0.1c-0.2,0-0.4,0.1-0.6,0.2
		c-0.1,0.1-0.2,0.3-0.2,0.5c0,0.2,0.1,0.3,0.2,0.5c0.1,0.1,0.4,0.2,0.7,0.4c0.8,0.3,1.2,0.8,1.2,1.5c0,0.4-0.2,0.8-0.5,1.1
		c-0.3,0.3-0.7,0.4-1.3,0.4c-0.5,0-1-0.1-1.3-0.3L151.8,62.1z"/>
	<path class="st4" d="M161.1,61.8c0,0.4,0,0.8,0.1,1.2h-0.8l-0.1-0.6h0c-0.1,0.2-0.3,0.4-0.6,0.5s-0.5,0.2-0.9,0.2
		c-0.5,0-0.8-0.2-1.1-0.4c-0.2-0.3-0.4-0.6-0.4-0.9c0-1.2,1-1.8,2.8-1.8v-0.1c0-0.1,0-0.2,0-0.4c0-0.1-0.1-0.2-0.1-0.4
		c-0.1-0.1-0.2-0.2-0.3-0.3c-0.1-0.1-0.3-0.1-0.6-0.1c-0.5,0-0.9,0.1-1.2,0.4l-0.2-0.6c0.4-0.3,0.9-0.4,1.6-0.4
		c0.4,0,0.7,0.1,0.9,0.2c0.2,0.1,0.4,0.3,0.5,0.5c0.1,0.2,0.2,0.4,0.3,0.6c0,0.2,0.1,0.5,0.1,0.7V61.8z M160.2,60.5
		c-0.2,0-0.5,0-0.7,0c-0.2,0-0.4,0.1-0.6,0.2c-0.2,0.1-0.3,0.2-0.5,0.3c-0.1,0.1-0.2,0.3-0.2,0.6c0,0.3,0.1,0.5,0.2,0.6
		c0.1,0.1,0.3,0.2,0.6,0.2c0.3,0,0.6-0.1,0.8-0.3c0.2-0.2,0.3-0.3,0.4-0.5c0-0.1,0-0.2,0-0.3V60.5z"/>
	<path class="st4" d="M162.5,59.4c0-0.5,0-0.9,0-1.3h0.8l0,0.8h0c0.1-0.2,0.3-0.4,0.6-0.6c0.3-0.2,0.6-0.3,1-0.3
		c0.2,0,0.4,0,0.5,0.1c0.2,0.1,0.4,0.2,0.5,0.3c0.2,0.1,0.3,0.4,0.4,0.6c0.1,0.3,0.2,0.6,0.2,1V63h-0.8v-2.8c0-0.4-0.1-0.7-0.2-1
		c-0.2-0.3-0.5-0.4-0.9-0.4c-0.3,0-0.5,0.1-0.7,0.3c-0.2,0.2-0.4,0.4-0.4,0.6c0,0.1-0.1,0.3-0.1,0.4V63h-0.8V59.4z"/>
	<path class="st4" d="M172,55.9v5.8c0,0.5,0,0.9,0,1.3h-0.8l0-0.8h0c-0.1,0.3-0.3,0.5-0.6,0.7c-0.3,0.2-0.6,0.3-1,0.3
		c-0.6,0-1-0.2-1.4-0.7c-0.4-0.4-0.6-1-0.6-1.8c0-0.8,0.2-1.5,0.6-1.9c0.4-0.5,0.9-0.7,1.5-0.7c0.4,0,0.7,0.1,0.9,0.2
		c0.2,0.1,0.4,0.3,0.5,0.5h0v-2.9H172z M171.1,60.1c0-0.1,0-0.3,0-0.4c-0.1-0.3-0.2-0.5-0.4-0.7c-0.2-0.2-0.5-0.3-0.8-0.3
		c-0.4,0-0.8,0.2-1,0.5c-0.3,0.3-0.4,0.8-0.4,1.3c0,0.5,0.1,0.9,0.4,1.3c0.2,0.4,0.6,0.5,1,0.5c0.3,0,0.6-0.1,0.8-0.3
		c0.1-0.1,0.2-0.2,0.3-0.3c0.1-0.1,0.1-0.3,0.2-0.4c0-0.1,0-0.2,0-0.4V60.1z"/>
	<path class="st4" d="M175.5,55.9h0.8V63h-0.8V55.9z"/>
	<path class="st4" d="M178.1,57.2c-0.2,0-0.3-0.1-0.4-0.2c-0.1-0.1-0.2-0.2-0.2-0.4c0-0.2,0.1-0.3,0.2-0.4c0.1-0.1,0.2-0.2,0.4-0.2
		c0.2,0,0.3,0.1,0.4,0.2c0.1,0.1,0.1,0.2,0.1,0.4c0,0.2,0,0.3-0.1,0.4C178.5,57.2,178.3,57.2,178.1,57.2L178.1,57.2z M177.7,63v-4.8
		h0.8V63H177.7z"/>
	<path class="st4" d="M183.2,62.2L183.2,62.2c-0.1,0.2-0.3,0.4-0.6,0.6c-0.3,0.2-0.6,0.3-1,0.3c-0.6,0-1-0.2-1.4-0.7
		c-0.4-0.4-0.6-1-0.6-1.8c0-0.9,0.2-1.6,0.7-2c0.4-0.4,0.9-0.6,1.4-0.6c0.4,0,0.7,0.1,0.9,0.2c0.2,0.2,0.4,0.4,0.5,0.6h0l0-0.7
		l0.8,0c0,0.4,0,0.8,0,1.3V65h-0.8V62.2z M183.2,60.1c0-0.1,0-0.3,0-0.4c-0.1-0.3-0.2-0.5-0.4-0.7c-0.2-0.2-0.5-0.3-0.8-0.3
		c-0.4,0-0.8,0.2-1,0.5c-0.3,0.3-0.4,0.8-0.4,1.4c0,0.5,0.1,0.9,0.4,1.3c0.2,0.4,0.6,0.5,1,0.5c0.6,0,1-0.3,1.2-1
		c0-0.1,0.1-0.3,0.1-0.4V60.1z"/>
	<path class="st4" d="M189.4,61.7c0,0.5,0,0.9,0,1.3h-0.8l0-0.8h0c-0.1,0.2-0.3,0.4-0.5,0.6c-0.3,0.2-0.6,0.3-1,0.3
		c-0.2,0-0.4,0-0.5-0.1c-0.2-0.1-0.4-0.2-0.5-0.3c-0.2-0.2-0.3-0.4-0.4-0.7c-0.1-0.3-0.2-0.6-0.2-1v-2.8h0.8v2.7
		c0,0.5,0.1,0.8,0.2,1.1c0.2,0.3,0.4,0.4,0.8,0.4c0.3,0,0.5-0.1,0.7-0.3c0.2-0.2,0.3-0.3,0.4-0.6c0.1-0.1,0.1-0.3,0.1-0.5v-3h0.8
		V61.7z"/>
	<path class="st4" d="M191.3,57.2c-0.2,0-0.3-0.1-0.4-0.2c-0.1-0.1-0.2-0.2-0.2-0.4c0-0.2,0.1-0.3,0.2-0.4c0.1-0.1,0.2-0.2,0.4-0.2
		c0.2,0,0.3,0.1,0.4,0.2c0.1,0.1,0.1,0.2,0.1,0.4c0,0.2,0,0.3-0.1,0.4C191.6,57.2,191.5,57.2,191.3,57.2L191.3,57.2z M190.9,63v-4.8
		h0.8V63H190.9z"/>
	<path class="st4" d="M197.2,55.9v5.8c0,0.5,0,0.9,0,1.3h-0.8l0-0.8h0c-0.1,0.3-0.3,0.5-0.6,0.7c-0.3,0.2-0.6,0.3-1,0.3
		c-0.6,0-1-0.2-1.4-0.7c-0.4-0.4-0.6-1-0.6-1.8c0-0.8,0.2-1.5,0.6-1.9c0.4-0.5,0.9-0.7,1.5-0.7c0.4,0,0.7,0.1,0.9,0.2
		c0.2,0.1,0.4,0.3,0.5,0.5h0v-2.9H197.2z M196.4,60.1c0-0.1,0-0.3,0-0.4c-0.1-0.3-0.2-0.5-0.4-0.7c-0.2-0.2-0.5-0.3-0.8-0.3
		c-0.4,0-0.8,0.2-1,0.5c-0.3,0.3-0.4,0.8-0.4,1.3c0,0.5,0.1,0.9,0.4,1.3c0.2,0.4,0.6,0.5,1,0.5c0.3,0,0.6-0.1,0.8-0.3
		c0.1-0.1,0.2-0.2,0.3-0.3c0.1-0.1,0.1-0.3,0.2-0.4c0-0.1,0-0.2,0-0.4V60.1z"/>
	<path class="st4" d="M198.6,62.1c0.1,0.1,0.3,0.2,0.5,0.2c0.2,0.1,0.4,0.1,0.6,0.1c0.3,0,0.5-0.1,0.7-0.2c0.1-0.1,0.2-0.3,0.2-0.5
		c0-0.2-0.1-0.4-0.2-0.5c-0.1-0.1-0.4-0.3-0.7-0.4c-0.8-0.3-1.3-0.8-1.3-1.4c0-0.4,0.1-0.7,0.4-1c0.3-0.3,0.7-0.4,1.2-0.4
		c0.5,0,0.9,0.1,1.1,0.3l-0.2,0.6c-0.1-0.1-0.2-0.1-0.4-0.2c-0.2-0.1-0.4-0.1-0.6-0.1c-0.2,0-0.4,0.1-0.6,0.2
		c-0.1,0.1-0.2,0.3-0.2,0.5c0,0.2,0.1,0.3,0.2,0.5c0.1,0.1,0.4,0.2,0.7,0.4c0.8,0.3,1.2,0.8,1.2,1.5c0,0.4-0.2,0.8-0.5,1.1
		c-0.3,0.3-0.7,0.4-1.3,0.4c-0.5,0-1-0.1-1.3-0.3L198.6,62.1z"/>
	<path class="st4" d="M204.9,58.1l0.6,2.5c0.1,0.5,0.2,1,0.3,1.5h0c0.1-0.5,0.3-1,0.4-1.5l0.8-2.5h0.7l0.7,2.4
		c0.2,0.6,0.3,1.1,0.4,1.6h0c0.1-0.5,0.2-1,0.4-1.6l0.7-2.4h0.8l-1.5,4.8h-0.8l-0.7-2.3c-0.2-0.5-0.3-1.1-0.4-1.6h0
		c-0.1,0.6-0.3,1.1-0.4,1.6l-0.8,2.3h-0.8l-1.4-4.8H204.9z"/>
	<path class="st4" d="M212.2,57.2c-0.2,0-0.3-0.1-0.4-0.2c-0.1-0.1-0.2-0.2-0.2-0.4c0-0.2,0.1-0.3,0.2-0.4c0.1-0.1,0.2-0.2,0.4-0.2
		c0.2,0,0.3,0.1,0.4,0.2c0.1,0.1,0.1,0.2,0.1,0.4c0,0.2,0,0.3-0.1,0.4C212.6,57.2,212.4,57.2,212.2,57.2L212.2,57.2z M211.8,63v-4.8
		h0.8V63H211.8z"/>
	<path class="st4" d="M215.1,57v1.2h1.2v0.7h-1.2v2.6c0,0.6,0.2,0.9,0.6,0.9c0.2,0,0.4,0,0.5-0.1l0,0.7c-0.2,0.1-0.4,0.1-0.8,0.1
		c-0.4,0-0.7-0.1-0.9-0.4c-0.2-0.3-0.3-0.7-0.3-1.3v-2.6h-0.7v-0.7h0.7v-0.9L215.1,57z"/>
	<path class="st4" d="M217.3,55.9h0.8v3h0c0.1-0.3,0.3-0.5,0.6-0.6c0.3-0.2,0.5-0.3,0.9-0.3c0.2,0,0.3,0,0.5,0.1
		c0.2,0.1,0.4,0.2,0.5,0.3c0.2,0.1,0.3,0.4,0.4,0.6c0.1,0.3,0.2,0.6,0.2,1V63h-0.8v-2.8c0-0.4-0.1-0.8-0.2-1
		c-0.2-0.3-0.5-0.4-0.9-0.4c-0.3,0-0.5,0.1-0.7,0.3c-0.2,0.2-0.3,0.4-0.4,0.6c0,0.1-0.1,0.3-0.1,0.4V63h-0.8V55.9z"/>
	<path class="st4" d="M224.6,63.1c-0.6,0-1.2-0.2-1.6-0.7c-0.4-0.4-0.7-1-0.7-1.8c0-0.8,0.2-1.5,0.7-1.9c0.4-0.4,1-0.7,1.6-0.7
		c0.7,0,1.2,0.2,1.6,0.7c0.4,0.4,0.6,1,0.6,1.8c0,0.9-0.3,1.5-0.7,2C225.8,62.9,225.2,63.1,224.6,63.1L224.6,63.1z M224.7,62.4
		c0.4,0,0.8-0.2,1-0.5c0.3-0.3,0.4-0.8,0.4-1.4c0-0.4-0.1-0.9-0.3-1.2c-0.2-0.4-0.6-0.6-1.1-0.6c-0.5,0-0.9,0.2-1.1,0.6
		c-0.2,0.4-0.4,0.8-0.4,1.3c0,0.5,0.1,1,0.4,1.3C223.9,62.2,224.2,62.4,224.7,62.4L224.7,62.4z"/>
	<path class="st4" d="M232,61.7c0,0.5,0,0.9,0,1.3h-0.8l0-0.8h0c-0.1,0.2-0.3,0.4-0.5,0.6c-0.3,0.2-0.6,0.3-1,0.3
		c-0.2,0-0.4,0-0.5-0.1c-0.2-0.1-0.4-0.2-0.5-0.3c-0.2-0.2-0.3-0.4-0.4-0.7c-0.1-0.3-0.2-0.6-0.2-1v-2.8h0.8v2.7
		c0,0.5,0.1,0.8,0.2,1.1c0.2,0.3,0.4,0.4,0.8,0.4c0.3,0,0.5-0.1,0.7-0.3c0.2-0.2,0.3-0.3,0.4-0.6c0.1-0.1,0.1-0.3,0.1-0.5v-3h0.8
		V61.7z"/>
	<path class="st4" d="M234.6,57v1.2h1.2v0.7h-1.2v2.6c0,0.6,0.2,0.9,0.6,0.9c0.2,0,0.4,0,0.5-0.1l0,0.7c-0.2,0.1-0.4,0.1-0.8,0.1
		c-0.4,0-0.7-0.1-0.9-0.4c-0.2-0.3-0.3-0.7-0.3-1.3v-2.6H233v-0.7h0.7v-0.9L234.6,57z"/>
	<path class="st4" d="M25.1,67.9h0.8v3h0c0.3-0.6,0.8-0.9,1.6-0.9c0.6,0,1.1,0.2,1.4,0.7c0.4,0.4,0.5,1,0.5,1.8
		c0,0.9-0.2,1.5-0.7,1.9c-0.4,0.4-0.9,0.7-1.5,0.7c-0.7,0-1.2-0.3-1.6-0.9h0l0,0.8H25c0-0.4,0-0.8,0-1.2V67.9z M25.9,73
		c0,0.1,0,0.2,0,0.3c0.1,0.3,0.3,0.6,0.5,0.7c0.2,0.2,0.5,0.3,0.8,0.3c0.5,0,0.8-0.2,1.1-0.5c0.2-0.3,0.4-0.8,0.4-1.4
		c0-0.5-0.1-0.9-0.4-1.3c-0.2-0.3-0.6-0.5-1-0.5c-0.3,0-0.6,0.1-0.8,0.3c-0.2,0.2-0.4,0.5-0.5,0.8c0,0.1,0,0.2,0,0.4V73z"/>
	<path class="st4" d="M30.7,71.6c0-0.6,0-1.1,0-1.5h0.7l0,0.9h0c0.1-0.3,0.3-0.6,0.5-0.8c0.2-0.2,0.5-0.3,0.8-0.3c0.1,0,0.2,0,0.2,0
		v0.8c-0.1,0-0.2,0-0.3,0c-0.3,0-0.6,0.1-0.7,0.3c-0.2,0.2-0.3,0.5-0.4,0.8c0,0.1,0,0.3,0,0.4V75h-0.9L30.7,71.6z"/>
	<path class="st4" d="M34.2,72.7c0,0.6,0.2,1,0.5,1.3c0.3,0.3,0.7,0.4,1.1,0.4c0.2,0,0.3,0,0.4,0c0.1,0,0.2,0,0.4,0
		c0.2,0,0.4-0.1,0.5-0.2l0.2,0.6c-0.1,0.1-0.3,0.1-0.6,0.2c-0.3,0.1-0.6,0.1-1,0.1c-0.7,0-1.3-0.2-1.7-0.7c-0.4-0.4-0.6-1-0.6-1.8
		c0-0.8,0.2-1.4,0.6-1.9c0.4-0.5,0.9-0.7,1.6-0.8c0.4,0,0.7,0.1,0.9,0.2c0.3,0.2,0.4,0.3,0.6,0.6c0.1,0.2,0.2,0.5,0.3,0.7
		c0.1,0.3,0.1,0.5,0.1,0.7c0,0.2,0,0.3,0,0.4L34.2,72.7z M36.7,72.1c0-0.3-0.1-0.6-0.2-0.9c-0.1-0.1-0.2-0.3-0.4-0.4
		c-0.2-0.1-0.4-0.1-0.6-0.1c-0.4,0-0.8,0.2-0.9,0.5c-0.1,0.1-0.2,0.3-0.2,0.5c0,0.1-0.1,0.2-0.1,0.2c0,0.1,0,0.2,0,0.3H36.7z"/>
	<path class="st4" d="M42,73.8c0,0.4,0,0.8,0.1,1.2h-0.8l-0.1-0.6h0c-0.1,0.2-0.3,0.4-0.6,0.5s-0.5,0.2-0.9,0.2
		c-0.5,0-0.8-0.2-1.1-0.4c-0.2-0.3-0.4-0.6-0.4-0.9c0-1.2,1-1.8,2.8-1.8v-0.1c0-0.1,0-0.2,0-0.4c0-0.1-0.1-0.2-0.1-0.4
		c-0.1-0.1-0.2-0.2-0.3-0.3c-0.1-0.1-0.3-0.1-0.6-0.1c-0.5,0-0.9,0.1-1.2,0.4l-0.2-0.6c0.4-0.3,0.9-0.4,1.6-0.4
		c0.4,0,0.7,0.1,0.9,0.2c0.2,0.1,0.4,0.3,0.5,0.5c0.1,0.2,0.2,0.4,0.3,0.6c0,0.2,0.1,0.5,0.1,0.7V73.8z M41.1,72.5
		c-0.2,0-0.5,0-0.7,0c-0.2,0-0.4,0.1-0.6,0.2c-0.2,0.1-0.3,0.2-0.5,0.3c-0.1,0.1-0.2,0.3-0.2,0.6c0,0.3,0.1,0.5,0.2,0.6
		c0.1,0.1,0.3,0.2,0.6,0.2c0.3,0,0.6-0.1,0.8-0.3c0.2-0.2,0.3-0.3,0.4-0.5c0-0.1,0-0.2,0-0.3V72.5z"/>
	<path class="st4" d="M44.2,72.4L44.2,72.4c0.2-0.2,0.3-0.4,0.4-0.5l1.4-1.7h1l-1.8,2l2.1,2.9h-1l-1.6-2.3l-0.4,0.5V75h-0.8v-7.1
		h0.8V72.4z"/>
	<path class="st4" d="M48.6,69.2c-0.2,0-0.3-0.1-0.4-0.2c-0.1-0.1-0.2-0.2-0.2-0.4c0-0.2,0.1-0.3,0.2-0.4c0.1-0.1,0.2-0.2,0.4-0.2
		c0.2,0,0.3,0.1,0.4,0.2c0.1,0.1,0.1,0.2,0.1,0.4c0,0.2,0,0.3-0.1,0.4C48.9,69.2,48.7,69.2,48.6,69.2L48.6,69.2z M48.2,75v-4.8H49
		V75H48.2z"/>
	<path class="st4" d="M50.4,71.4c0-0.5,0-0.9,0-1.3h0.8l0,0.8h0c0.1-0.2,0.3-0.4,0.6-0.6c0.3-0.2,0.6-0.3,1-0.3c0.2,0,0.4,0,0.5,0.1
		c0.2,0.1,0.4,0.2,0.5,0.3c0.2,0.1,0.3,0.4,0.4,0.6c0.1,0.3,0.2,0.6,0.2,1V75h-0.8v-2.8c0-0.4-0.1-0.7-0.2-1
		c-0.2-0.3-0.5-0.4-0.9-0.4c-0.3,0-0.5,0.1-0.7,0.3c-0.2,0.2-0.4,0.4-0.4,0.6c0,0.1-0.1,0.3-0.1,0.4V75h-0.8V71.4z"/>
	<path class="st4" d="M59.9,74.3c0,0.6-0.1,1-0.2,1.4c-0.1,0.4-0.3,0.6-0.5,0.9c-0.2,0.2-0.5,0.4-0.8,0.4c-0.3,0.1-0.6,0.1-0.9,0.1
		c-0.3,0-0.6,0-0.8-0.1c-0.3-0.1-0.5-0.2-0.7-0.3l0.2-0.7c0.3,0.2,0.8,0.4,1.4,0.4c0.4,0,0.8-0.1,1.1-0.4c0.3-0.3,0.4-0.7,0.4-1.3
		v-0.5h0c-0.1,0.2-0.3,0.4-0.6,0.6c-0.3,0.2-0.6,0.2-0.9,0.2c-0.6,0-1.1-0.2-1.4-0.7c-0.4-0.4-0.6-1-0.6-1.7c0-0.8,0.2-1.5,0.7-1.9
		c0.4-0.4,0.9-0.7,1.5-0.7c0.4,0,0.7,0.1,1,0.3c0.2,0.2,0.4,0.4,0.5,0.6h0l0-0.7l0.8,0c0,0.3,0,0.8,0,1.3V74.3z M59,72
		c0-0.1,0-0.3,0-0.4c-0.1-0.3-0.2-0.5-0.4-0.7c-0.2-0.2-0.5-0.3-0.8-0.3c-0.4,0-0.7,0.2-1,0.5c-0.3,0.3-0.4,0.8-0.4,1.4
		c0,0.5,0.1,0.9,0.4,1.2c0.2,0.3,0.6,0.5,1,0.5c0.3,0,0.5-0.1,0.7-0.3c0.2-0.2,0.4-0.4,0.4-0.7c0-0.1,0.1-0.3,0.1-0.5V72z"/>
	<path class="st4" d="M64.4,69v1.2h1.2v0.7h-1.2v2.6c0,0.6,0.2,0.9,0.6,0.9c0.2,0,0.4,0,0.5-0.1l0,0.7c-0.2,0.1-0.4,0.1-0.8,0.1
		c-0.4,0-0.7-0.1-0.9-0.4c-0.2-0.3-0.3-0.7-0.3-1.3v-2.6h-0.7v-0.7h0.7v-0.9L64.4,69z"/>
	<path class="st4" d="M66.6,67.9h0.8v3h0c0.1-0.3,0.3-0.5,0.6-0.6c0.3-0.2,0.5-0.3,0.9-0.3c0.2,0,0.3,0,0.5,0.1
		c0.2,0.1,0.4,0.2,0.5,0.3c0.2,0.1,0.3,0.4,0.4,0.6c0.1,0.3,0.2,0.6,0.2,1V75h-0.8v-2.8c0-0.4-0.1-0.8-0.2-1
		c-0.2-0.3-0.5-0.4-0.9-0.4c-0.3,0-0.5,0.1-0.7,0.3c-0.2,0.2-0.3,0.4-0.4,0.6c0,0.1-0.1,0.3-0.1,0.4V75h-0.8V67.9z"/>
	<path class="st4" d="M72,71.6c0-0.6,0-1.1,0-1.5h0.7l0,0.9h0c0.1-0.3,0.3-0.6,0.5-0.8c0.2-0.2,0.5-0.3,0.8-0.3c0.1,0,0.2,0,0.2,0
		v0.8c-0.1,0-0.2,0-0.3,0c-0.3,0-0.6,0.1-0.7,0.3c-0.2,0.2-0.3,0.5-0.4,0.8c0,0.1,0,0.3,0,0.4V75H72L72,71.6z"/>
	<path class="st4" d="M77,75.1c-0.6,0-1.2-0.2-1.6-0.7c-0.4-0.4-0.7-1-0.7-1.8c0-0.8,0.2-1.5,0.7-1.9c0.4-0.4,1-0.7,1.6-0.7
		c0.7,0,1.2,0.2,1.6,0.7c0.4,0.4,0.6,1,0.6,1.8c0,0.9-0.3,1.5-0.7,2C78.2,74.9,77.6,75.1,77,75.1L77,75.1z M77.1,74.4
		c0.4,0,0.8-0.2,1-0.5c0.3-0.3,0.4-0.8,0.4-1.4c0-0.4-0.1-0.9-0.3-1.2c-0.2-0.4-0.6-0.6-1.1-0.6c-0.5,0-0.9,0.2-1.1,0.6
		c-0.2,0.4-0.4,0.8-0.4,1.3c0,0.5,0.1,1,0.4,1.3C76.3,74.2,76.6,74.4,77.1,74.4L77.1,74.4z"/>
	<path class="st4" d="M84.4,73.7c0,0.5,0,0.9,0,1.3h-0.8l0-0.8h0c-0.1,0.2-0.3,0.4-0.5,0.6c-0.3,0.2-0.6,0.3-1,0.3
		c-0.2,0-0.4,0-0.5-0.1c-0.2-0.1-0.4-0.2-0.5-0.3c-0.2-0.2-0.3-0.4-0.4-0.7c-0.1-0.3-0.2-0.6-0.2-1v-2.8h0.8v2.7
		c0,0.5,0.1,0.8,0.2,1.1c0.2,0.3,0.4,0.4,0.8,0.4c0.3,0,0.5-0.1,0.7-0.3c0.2-0.2,0.3-0.3,0.4-0.6c0.1-0.1,0.1-0.3,0.1-0.5v-3h0.8
		V73.7z"/>
	<path class="st4" d="M89.9,74.3c0,0.6-0.1,1-0.2,1.4c-0.1,0.4-0.3,0.6-0.5,0.9c-0.2,0.2-0.5,0.4-0.8,0.4c-0.3,0.1-0.6,0.1-0.9,0.1
		c-0.3,0-0.6,0-0.8-0.1c-0.3-0.1-0.5-0.2-0.7-0.3l0.2-0.7c0.3,0.2,0.8,0.4,1.4,0.4c0.4,0,0.8-0.1,1.1-0.4c0.3-0.3,0.4-0.7,0.4-1.3
		v-0.5h0c-0.1,0.2-0.3,0.4-0.6,0.6c-0.3,0.2-0.6,0.2-0.9,0.2c-0.6,0-1.1-0.2-1.4-0.7c-0.4-0.4-0.6-1-0.6-1.7c0-0.8,0.2-1.5,0.7-1.9
		c0.4-0.4,0.9-0.7,1.5-0.7c0.4,0,0.7,0.1,1,0.3c0.2,0.2,0.4,0.4,0.5,0.6h0l0-0.7l0.8,0c0,0.3,0,0.8,0,1.3V74.3z M89.1,72
		c0-0.1,0-0.3,0-0.4c-0.1-0.3-0.2-0.5-0.4-0.7c-0.2-0.2-0.5-0.3-0.8-0.3c-0.4,0-0.7,0.2-1,0.5c-0.3,0.3-0.4,0.8-0.4,1.4
		c0,0.5,0.1,0.9,0.4,1.2c0.2,0.3,0.6,0.5,1,0.5c0.3,0,0.5-0.1,0.7-0.3c0.2-0.2,0.4-0.4,0.4-0.7c0-0.1,0.1-0.3,0.1-0.5V72z"/>
	<path class="st4" d="M91.4,67.9h0.8v3h0c0.1-0.3,0.3-0.5,0.6-0.6c0.3-0.2,0.5-0.3,0.9-0.3c0.2,0,0.3,0,0.5,0.1
		c0.2,0.1,0.4,0.2,0.5,0.3c0.2,0.1,0.3,0.4,0.4,0.6c0.1,0.3,0.2,0.6,0.2,1V75h-0.8v-2.8c0-0.4-0.1-0.8-0.2-1
		c-0.2-0.3-0.5-0.4-0.9-0.4c-0.3,0-0.5,0.1-0.7,0.3c-0.2,0.2-0.3,0.4-0.4,0.6c0,0.1-0.1,0.3-0.1,0.4V75h-0.8V67.9z"/>
	<path class="st4" d="M97.2,75.1c-0.2,0-0.3-0.1-0.4-0.2c-0.1-0.1-0.2-0.3-0.2-0.4c0-0.2,0.1-0.3,0.2-0.5c0.1-0.1,0.2-0.2,0.4-0.2
		c0.2,0,0.3,0.1,0.4,0.2c0.1,0.1,0.2,0.3,0.2,0.5c0,0.2-0.1,0.3-0.2,0.4C97.6,75,97.4,75.1,97.2,75.1L97.2,75.1z"/>
	<path class="st4" d="M102.7,75.1c-0.9,0-1.6-0.3-2.1-1c-0.5-0.6-0.8-1.4-0.8-2.5c0-1.1,0.3-1.9,0.9-2.6c0.5-0.6,1.3-1,2.2-1
		c0.9,0,1.6,0.3,2.1,1c0.5,0.6,0.8,1.4,0.8,2.5c0,1.2-0.3,2-0.9,2.6C104.3,74.8,103.6,75.1,102.7,75.1L102.7,75.1z M102.7,74.4
		c0.7,0,1.2-0.3,1.6-0.8c0.4-0.5,0.5-1.2,0.5-2c0-0.7-0.2-1.3-0.5-1.9c-0.3-0.6-0.9-0.8-1.6-0.9c-0.7,0-1.2,0.3-1.6,0.9
		c-0.4,0.5-0.5,1.2-0.5,2c0,0.7,0.2,1.4,0.6,1.9C101.5,74.1,102,74.4,102.7,74.4L102.7,74.4z"/>
	<path class="st4" d="M106.9,71.4c0-0.5,0-0.9,0-1.3h0.8l0,0.8h0c0.1-0.2,0.3-0.4,0.6-0.6c0.3-0.2,0.6-0.3,1-0.3
		c0.2,0,0.4,0,0.5,0.1c0.2,0.1,0.4,0.2,0.5,0.3c0.2,0.1,0.3,0.4,0.4,0.6c0.1,0.3,0.2,0.6,0.2,1V75H110v-2.8c0-0.4-0.1-0.7-0.2-1
		c-0.2-0.3-0.5-0.4-0.9-0.4c-0.3,0-0.5,0.1-0.7,0.3c-0.2,0.2-0.4,0.4-0.4,0.6c0,0.1-0.1,0.3-0.1,0.4V75h-0.8V71.4z"/>
	<path class="st4" d="M115.7,74.8c-0.1,0.1-0.3,0.1-0.5,0.2c-0.1,0-0.2,0-0.4,0.1c-0.1,0-0.3,0-0.5,0c-0.7,0-1.3-0.2-1.7-0.7
		c-0.4-0.4-0.6-1-0.6-1.8c0-0.8,0.2-1.4,0.7-1.9c0.4-0.5,1.1-0.7,1.8-0.7c0.5,0,0.9,0.1,1.2,0.3l-0.2,0.7c-0.1-0.1-0.2-0.1-0.4-0.2
		c-0.2,0-0.4-0.1-0.6-0.1c-0.5,0-0.9,0.2-1.2,0.5c-0.3,0.4-0.4,0.8-0.4,1.3c0,0.6,0.2,1,0.5,1.3c0.3,0.3,0.7,0.5,1.2,0.5
		c0.2,0,0.4,0,0.6-0.1c0.2,0,0.3-0.1,0.4-0.2L115.7,74.8z"/>
	<path class="st4" d="M117.2,72.7c0,0.6,0.2,1,0.5,1.3c0.3,0.3,0.7,0.4,1.1,0.4c0.2,0,0.3,0,0.4,0c0.1,0,0.2,0,0.4,0
		c0.2,0,0.4-0.1,0.5-0.2l0.2,0.6c-0.1,0.1-0.3,0.1-0.6,0.2c-0.3,0.1-0.6,0.1-1,0.1c-0.7,0-1.3-0.2-1.7-0.7c-0.4-0.4-0.6-1-0.6-1.8
		c0-0.8,0.2-1.4,0.6-1.9c0.4-0.5,0.9-0.7,1.6-0.8c0.4,0,0.7,0.1,0.9,0.2c0.3,0.2,0.4,0.3,0.6,0.6c0.1,0.2,0.2,0.5,0.3,0.7
		c0.1,0.3,0.1,0.5,0.1,0.7c0,0.2,0,0.3,0,0.4L117.2,72.7z M119.6,72.1c0-0.3-0.1-0.6-0.2-0.9c-0.1-0.1-0.2-0.3-0.4-0.4
		c-0.2-0.1-0.4-0.1-0.6-0.1c-0.4,0-0.8,0.2-0.9,0.5c-0.1,0.1-0.2,0.3-0.2,0.5c0,0.1-0.1,0.2-0.1,0.2c0,0.1,0,0.2,0,0.3H119.6z"/>
	<path class="st4" d="M126.9,73.8c0,0.4,0,0.8,0.1,1.2h-0.8l-0.1-0.6h0c-0.1,0.2-0.3,0.4-0.6,0.5s-0.5,0.2-0.9,0.2
		c-0.5,0-0.8-0.2-1.1-0.4c-0.2-0.3-0.4-0.6-0.4-0.9c0-1.2,1-1.8,2.8-1.8v-0.1c0-0.1,0-0.2,0-0.4c0-0.1-0.1-0.2-0.1-0.4
		c-0.1-0.1-0.2-0.2-0.3-0.3c-0.1-0.1-0.3-0.1-0.6-0.1c-0.5,0-0.9,0.1-1.2,0.4l-0.2-0.6c0.4-0.3,0.9-0.4,1.6-0.4
		c0.4,0,0.7,0.1,0.9,0.2c0.2,0.1,0.4,0.3,0.5,0.5c0.1,0.2,0.2,0.4,0.3,0.6c0,0.2,0.1,0.5,0.1,0.7V73.8z M126.1,72.5
		c-0.2,0-0.5,0-0.7,0c-0.2,0-0.4,0.1-0.6,0.2c-0.2,0.1-0.3,0.2-0.5,0.3c-0.1,0.1-0.2,0.3-0.2,0.6c0,0.3,0.1,0.5,0.2,0.6
		c0.1,0.1,0.3,0.2,0.6,0.2c0.3,0,0.6-0.1,0.8-0.3c0.2-0.2,0.3-0.3,0.4-0.5c0-0.1,0-0.2,0-0.3V72.5z"/>
	<path class="st4" d="M131.7,74.8c-0.1,0.1-0.3,0.1-0.5,0.2c-0.1,0-0.2,0-0.4,0.1c-0.1,0-0.3,0-0.5,0c-0.7,0-1.3-0.2-1.7-0.7
		c-0.4-0.4-0.6-1-0.6-1.8c0-0.8,0.2-1.4,0.7-1.9c0.4-0.5,1.1-0.7,1.8-0.7c0.5,0,0.9,0.1,1.2,0.3l-0.2,0.7c-0.1-0.1-0.2-0.1-0.4-0.2
		c-0.2,0-0.4-0.1-0.6-0.1c-0.5,0-0.9,0.2-1.2,0.5c-0.3,0.4-0.4,0.8-0.4,1.3c0,0.6,0.2,1,0.5,1.3c0.3,0.3,0.7,0.5,1.2,0.5
		c0.2,0,0.4,0,0.6-0.1c0.2,0,0.3-0.1,0.4-0.2L131.7,74.8z"/>
	<path class="st4" d="M133.9,69v1.2h1.2v0.7h-1.2v2.6c0,0.6,0.2,0.9,0.6,0.9c0.2,0,0.4,0,0.5-0.1l0,0.7c-0.2,0.1-0.4,0.1-0.8,0.1
		c-0.4,0-0.7-0.1-0.9-0.4c-0.2-0.3-0.3-0.7-0.3-1.3v-2.6h-0.7v-0.7h0.7v-0.9L133.9,69z"/>
	<path class="st4" d="M136.5,69.2c-0.2,0-0.3-0.1-0.4-0.2c-0.1-0.1-0.2-0.2-0.2-0.4c0-0.2,0.1-0.3,0.2-0.4c0.1-0.1,0.2-0.2,0.4-0.2
		c0.2,0,0.3,0.1,0.4,0.2c0.1,0.1,0.1,0.2,0.1,0.4c0,0.2,0,0.3-0.1,0.4C136.8,69.2,136.6,69.2,136.5,69.2L136.5,69.2z M136,75v-4.8
		h0.8V75H136z"/>
	<path class="st4" d="M138.6,70.1l0.9,2.7c0.2,0.4,0.3,0.9,0.4,1.3h0c0.1-0.4,0.2-0.8,0.4-1.3l0.9-2.7h0.9l-1.8,4.8h-0.8l-1.8-4.8
		H138.6z"/>
	<path class="st4" d="M146.2,73.8c0,0.4,0,0.8,0.1,1.2h-0.8l-0.1-0.6h0c-0.1,0.2-0.3,0.4-0.6,0.5s-0.5,0.2-0.9,0.2
		c-0.5,0-0.8-0.2-1.1-0.4c-0.2-0.3-0.4-0.6-0.4-0.9c0-1.2,1-1.8,2.8-1.8v-0.1c0-0.1,0-0.2,0-0.4c0-0.1-0.1-0.2-0.1-0.4
		c-0.1-0.1-0.2-0.2-0.3-0.3c-0.1-0.1-0.3-0.1-0.6-0.1c-0.5,0-0.9,0.1-1.2,0.4l-0.2-0.6c0.4-0.3,0.9-0.4,1.6-0.4
		c0.4,0,0.7,0.1,0.9,0.2c0.2,0.1,0.4,0.3,0.5,0.5c0.1,0.2,0.2,0.4,0.3,0.6c0,0.2,0.1,0.5,0.1,0.7V73.8z M145.3,72.5
		c-0.2,0-0.5,0-0.7,0c-0.2,0-0.4,0.1-0.6,0.2c-0.2,0.1-0.3,0.2-0.5,0.3c-0.1,0.1-0.2,0.3-0.2,0.6c0,0.3,0.1,0.5,0.2,0.6
		c0.1,0.1,0.3,0.2,0.6,0.2c0.3,0,0.6-0.1,0.8-0.3c0.2-0.2,0.3-0.3,0.4-0.5c0-0.1,0-0.2,0-0.3V72.5z"/>
	<path class="st4" d="M148.6,69v1.2h1.2v0.7h-1.2v2.6c0,0.6,0.2,0.9,0.6,0.9c0.2,0,0.4,0,0.5-0.1l0,0.7c-0.2,0.1-0.4,0.1-0.8,0.1
		c-0.4,0-0.7-0.1-0.9-0.4c-0.2-0.3-0.3-0.7-0.3-1.3v-2.6H147v-0.7h0.7v-0.9L148.6,69z"/>
	<path class="st4" d="M151.2,72.7c0,0.6,0.2,1,0.5,1.3c0.3,0.3,0.7,0.4,1.1,0.4c0.2,0,0.3,0,0.4,0c0.1,0,0.2,0,0.4,0
		c0.2,0,0.4-0.1,0.5-0.2l0.2,0.6c-0.1,0.1-0.3,0.1-0.6,0.2c-0.3,0.1-0.6,0.1-1,0.1c-0.7,0-1.3-0.2-1.7-0.7c-0.4-0.4-0.6-1-0.6-1.8
		c0-0.8,0.2-1.4,0.6-1.9c0.4-0.5,0.9-0.7,1.6-0.8c0.4,0,0.7,0.1,0.9,0.2c0.3,0.2,0.4,0.3,0.6,0.6c0.1,0.2,0.2,0.5,0.3,0.7
		c0.1,0.3,0.1,0.5,0.1,0.7c0,0.2,0,0.3,0,0.4L151.2,72.7z M153.7,72.1c0-0.3-0.1-0.6-0.2-0.9c-0.1-0.1-0.2-0.3-0.4-0.4
		c-0.2-0.1-0.4-0.1-0.6-0.1c-0.4,0-0.8,0.2-0.9,0.5c-0.1,0.1-0.2,0.3-0.2,0.5c0,0.1-0.1,0.2-0.1,0.2c0,0.1,0,0.2,0,0.3H153.7z"/>
	<path class="st4" d="M159.6,67.9v5.8c0,0.5,0,0.9,0,1.3h-0.8l0-0.8h0c-0.1,0.3-0.3,0.5-0.6,0.7c-0.3,0.2-0.6,0.3-1,0.3
		c-0.6,0-1-0.2-1.4-0.7c-0.4-0.4-0.6-1-0.6-1.8c0-0.8,0.2-1.5,0.6-1.9c0.4-0.5,0.9-0.7,1.5-0.7c0.4,0,0.7,0.1,0.9,0.2
		c0.2,0.1,0.4,0.3,0.5,0.5h0v-2.9H159.6z M158.8,72.1c0-0.1,0-0.3,0-0.4c-0.1-0.3-0.2-0.5-0.4-0.7c-0.2-0.2-0.5-0.3-0.8-0.3
		c-0.4,0-0.8,0.2-1,0.5c-0.3,0.3-0.4,0.8-0.4,1.3c0,0.5,0.1,0.9,0.4,1.3c0.2,0.4,0.6,0.5,1,0.5c0.3,0,0.6-0.1,0.8-0.3
		c0.1-0.1,0.2-0.2,0.3-0.3c0.1-0.1,0.1-0.3,0.2-0.4c0-0.1,0-0.2,0-0.4V72.1z"/>
	<path class="st4" d="M160.3,76.2c0.2-0.7,0.4-1.5,0.6-2.4l0.9-0.1c-0.3,1-0.6,1.8-0.9,2.4L160.3,76.2z"/>
	<path class="st4" d="M164.2,71.4c0-0.5,0-0.9,0-1.3h0.8l0,0.8h0c0.1-0.2,0.3-0.4,0.6-0.6c0.3-0.2,0.6-0.3,1-0.3
		c0.2,0,0.4,0,0.5,0.1c0.2,0.1,0.4,0.2,0.5,0.3c0.2,0.1,0.3,0.4,0.4,0.6c0.1,0.3,0.2,0.6,0.2,1V75h-0.8v-2.8c0-0.4-0.1-0.7-0.2-1
		c-0.2-0.3-0.5-0.4-0.9-0.4c-0.3,0-0.5,0.1-0.7,0.3c-0.2,0.2-0.4,0.4-0.4,0.6c0,0.1-0.1,0.3-0.1,0.4V75h-0.8V71.4z"/>
	<path class="st4" d="M171.5,75.1c-0.6,0-1.2-0.2-1.6-0.7c-0.4-0.4-0.7-1-0.7-1.8c0-0.8,0.2-1.5,0.7-1.9c0.4-0.4,1-0.7,1.6-0.7
		c0.7,0,1.2,0.2,1.6,0.7c0.4,0.4,0.6,1,0.6,1.8c0,0.9-0.3,1.5-0.7,2C172.7,74.9,172.1,75.1,171.5,75.1L171.5,75.1z M171.6,74.4
		c0.4,0,0.8-0.2,1-0.5c0.3-0.3,0.4-0.8,0.4-1.4c0-0.4-0.1-0.9-0.3-1.2c-0.2-0.4-0.6-0.6-1.1-0.6c-0.5,0-0.9,0.2-1.1,0.6
		c-0.2,0.4-0.4,0.8-0.4,1.3c0,0.5,0.1,1,0.4,1.3C170.8,74.2,171.1,74.4,171.6,74.4L171.6,74.4z"/>
	<path class="st4" d="M177.1,71.6c0-0.6,0-1.1,0-1.5h0.7l0,0.9h0c0.1-0.3,0.3-0.6,0.5-0.8c0.2-0.2,0.5-0.3,0.8-0.3
		c0.1,0,0.2,0,0.2,0v0.8c-0.1,0-0.2,0-0.3,0c-0.3,0-0.6,0.1-0.7,0.3c-0.2,0.2-0.3,0.5-0.4,0.8c0,0.1,0,0.3,0,0.4V75H177L177.1,71.6z
		"/>
	<path class="st4" d="M180.6,72.7c0,0.6,0.2,1,0.5,1.3c0.3,0.3,0.7,0.4,1.1,0.4c0.2,0,0.3,0,0.4,0c0.1,0,0.2,0,0.4,0
		c0.2,0,0.4-0.1,0.5-0.2l0.2,0.6c-0.1,0.1-0.3,0.1-0.6,0.2c-0.3,0.1-0.6,0.1-1,0.1c-0.7,0-1.3-0.2-1.7-0.7c-0.4-0.4-0.6-1-0.6-1.8
		c0-0.8,0.2-1.4,0.6-1.9c0.4-0.5,0.9-0.7,1.6-0.8c0.4,0,0.7,0.1,0.9,0.2c0.3,0.2,0.4,0.3,0.6,0.6c0.1,0.2,0.2,0.5,0.3,0.7
		c0.1,0.3,0.1,0.5,0.1,0.7c0,0.2,0,0.3,0,0.4L180.6,72.7z M183.1,72.1c0-0.3-0.1-0.6-0.2-0.9c-0.1-0.1-0.2-0.3-0.4-0.4
		c-0.2-0.1-0.4-0.1-0.6-0.1c-0.4,0-0.8,0.2-0.9,0.5c-0.1,0.1-0.2,0.3-0.2,0.5c0,0.1-0.1,0.2-0.1,0.2c0,0.1,0,0.2,0,0.3H183.1z"/>
	<path class="st4" d="M187,72v0.6h-2.4V72H187z"/>
	<path class="st4" d="M191.3,73.8c0,0.4,0,0.8,0.1,1.2h-0.8l-0.1-0.6h0c-0.1,0.2-0.3,0.4-0.6,0.5s-0.5,0.2-0.9,0.2
		c-0.5,0-0.8-0.2-1.1-0.4c-0.2-0.3-0.4-0.6-0.4-0.9c0-1.2,1-1.8,2.8-1.8v-0.1c0-0.1,0-0.2,0-0.4c0-0.1-0.1-0.2-0.1-0.4
		c-0.1-0.1-0.2-0.2-0.3-0.3c-0.1-0.1-0.3-0.1-0.6-0.1c-0.5,0-0.9,0.1-1.2,0.4l-0.2-0.6c0.4-0.3,0.9-0.4,1.6-0.4
		c0.4,0,0.7,0.1,0.9,0.2c0.2,0.1,0.4,0.3,0.5,0.5c0.1,0.2,0.2,0.4,0.3,0.6c0,0.2,0.1,0.5,0.1,0.7V73.8z M190.5,72.5
		c-0.2,0-0.5,0-0.7,0c-0.2,0-0.4,0.1-0.6,0.2c-0.2,0.1-0.3,0.2-0.5,0.3c-0.1,0.1-0.2,0.3-0.2,0.6c0,0.3,0.1,0.5,0.2,0.6
		c0.1,0.1,0.3,0.2,0.6,0.2c0.3,0,0.6-0.1,0.8-0.3c0.2-0.2,0.3-0.3,0.4-0.5c0-0.1,0-0.2,0-0.3V72.5z"/>
	<path class="st4" d="M196.1,74.8c-0.1,0.1-0.3,0.1-0.5,0.2c-0.1,0-0.2,0-0.4,0.1c-0.1,0-0.3,0-0.5,0c-0.7,0-1.3-0.2-1.7-0.7
		c-0.4-0.4-0.6-1-0.6-1.8c0-0.8,0.2-1.4,0.7-1.9c0.4-0.5,1.1-0.7,1.8-0.7c0.5,0,0.9,0.1,1.2,0.3l-0.2,0.7c-0.1-0.1-0.2-0.1-0.4-0.2
		c-0.2,0-0.4-0.1-0.6-0.1c-0.5,0-0.9,0.2-1.2,0.5c-0.3,0.4-0.4,0.8-0.4,1.3c0,0.6,0.2,1,0.5,1.3c0.3,0.3,0.7,0.5,1.2,0.5
		c0.2,0,0.4,0,0.6-0.1c0.2,0,0.3-0.1,0.4-0.2L196.1,74.8z"/>
	<path class="st4" d="M198.3,69v1.2h1.2v0.7h-1.2v2.6c0,0.6,0.2,0.9,0.6,0.9c0.2,0,0.4,0,0.5-0.1l0,0.7c-0.2,0.1-0.4,0.1-0.8,0.1
		c-0.4,0-0.7-0.1-0.9-0.4c-0.2-0.3-0.3-0.7-0.3-1.3v-2.6h-0.7v-0.7h0.7v-0.9L198.3,69z"/>
	<path class="st4" d="M200.9,69.2c-0.2,0-0.3-0.1-0.4-0.2c-0.1-0.1-0.2-0.2-0.2-0.4c0-0.2,0.1-0.3,0.2-0.4c0.1-0.1,0.2-0.2,0.4-0.2
		c0.2,0,0.3,0.1,0.4,0.2c0.1,0.1,0.1,0.2,0.1,0.4c0,0.2,0,0.3-0.1,0.4C201.2,69.2,201.1,69.2,200.9,69.2L200.9,69.2z M200.5,75v-4.8
		h0.8V75H200.5z"/>
	<path class="st4" d="M203,70.1l0.9,2.7c0.2,0.4,0.3,0.9,0.4,1.3h0c0.1-0.4,0.2-0.8,0.4-1.3l0.9-2.7h0.9l-1.8,4.8h-0.8l-1.8-4.8H203
		z"/>
	<path class="st4" d="M210.6,73.8c0,0.4,0,0.8,0.1,1.2h-0.8l-0.1-0.6h0c-0.1,0.2-0.3,0.4-0.6,0.5s-0.5,0.2-0.9,0.2
		c-0.5,0-0.8-0.2-1.1-0.4c-0.2-0.3-0.4-0.6-0.4-0.9c0-1.2,1-1.8,2.8-1.8v-0.1c0-0.1,0-0.2,0-0.4c0-0.1-0.1-0.2-0.1-0.4
		c-0.1-0.1-0.2-0.2-0.3-0.3c-0.1-0.1-0.3-0.1-0.6-0.1c-0.5,0-0.9,0.1-1.2,0.4l-0.2-0.6c0.4-0.3,0.9-0.4,1.6-0.4
		c0.4,0,0.7,0.1,0.9,0.2c0.2,0.1,0.4,0.3,0.5,0.5c0.1,0.2,0.2,0.4,0.3,0.6c0,0.2,0.1,0.5,0.1,0.7V73.8z M209.8,72.5
		c-0.2,0-0.5,0-0.7,0c-0.2,0-0.4,0.1-0.6,0.2c-0.2,0.1-0.3,0.2-0.5,0.3c-0.1,0.1-0.2,0.3-0.2,0.6c0,0.3,0.1,0.5,0.2,0.6
		c0.1,0.1,0.3,0.2,0.6,0.2c0.3,0,0.6-0.1,0.8-0.3c0.2-0.2,0.3-0.3,0.4-0.5c0-0.1,0-0.2,0-0.3V72.5z"/>
	<path class="st4" d="M213,69v1.2h1.2v0.7H213v2.6c0,0.6,0.2,0.9,0.6,0.9c0.2,0,0.4,0,0.5-0.1l0,0.7c-0.2,0.1-0.4,0.1-0.8,0.1
		c-0.4,0-0.7-0.1-0.9-0.4c-0.2-0.3-0.3-0.7-0.3-1.3v-2.6h-0.7v-0.7h0.7v-0.9L213,69z"/>
	<path class="st4" d="M215.6,69.2c-0.2,0-0.3-0.1-0.4-0.2c-0.1-0.1-0.2-0.2-0.2-0.4c0-0.2,0.1-0.3,0.2-0.4c0.1-0.1,0.2-0.2,0.4-0.2
		c0.2,0,0.3,0.1,0.4,0.2c0.1,0.1,0.1,0.2,0.1,0.4c0,0.2,0,0.3-0.1,0.4C215.9,69.2,215.8,69.2,215.6,69.2L215.6,69.2z M215.2,75v-4.8
		h0.8V75H215.2z"/>
	<path class="st4" d="M219.3,75.1c-0.6,0-1.2-0.2-1.6-0.7c-0.4-0.4-0.7-1-0.7-1.8c0-0.8,0.2-1.5,0.7-1.9c0.4-0.4,1-0.7,1.6-0.7
		c0.7,0,1.2,0.2,1.6,0.7c0.4,0.4,0.6,1,0.6,1.8c0,0.9-0.3,1.5-0.7,2C220.4,74.9,219.9,75.1,219.3,75.1L219.3,75.1z M219.3,74.4
		c0.4,0,0.8-0.2,1-0.5c0.3-0.3,0.4-0.8,0.4-1.4c0-0.4-0.1-0.9-0.3-1.2c-0.2-0.4-0.6-0.6-1.1-0.6c-0.5,0-0.9,0.2-1.1,0.6
		c-0.2,0.4-0.4,0.8-0.4,1.3c0,0.5,0.1,1,0.4,1.3C218.6,74.2,218.9,74.4,219.3,74.4L219.3,74.4z"/>
	<path class="st4" d="M222.8,71.4c0-0.5,0-0.9,0-1.3h0.8l0,0.8h0c0.1-0.2,0.3-0.4,0.6-0.6c0.3-0.2,0.6-0.3,1-0.3
		c0.2,0,0.4,0,0.5,0.1c0.2,0.1,0.4,0.2,0.5,0.3c0.2,0.1,0.3,0.4,0.4,0.6c0.1,0.3,0.2,0.6,0.2,1V75h-0.8v-2.8c0-0.4-0.1-0.7-0.2-1
		c-0.2-0.3-0.5-0.4-0.9-0.4c-0.3,0-0.5,0.1-0.7,0.3c-0.2,0.2-0.4,0.4-0.4,0.6c0,0.1-0.1,0.3-0.1,0.4V75h-0.8V71.4z"/>
	<path class="st4" d="M60.8,83.4c0-0.5,0-0.9,0-1.3h0.8l0,0.8h0c0.1-0.2,0.3-0.4,0.6-0.6c0.3-0.2,0.6-0.3,1-0.3c0.2,0,0.4,0,0.5,0.1
		c0.2,0.1,0.4,0.2,0.5,0.3c0.2,0.1,0.3,0.4,0.4,0.6c0.1,0.3,0.2,0.6,0.2,1V87h-0.8v-2.8c0-0.4-0.1-0.7-0.2-1
		c-0.2-0.3-0.5-0.4-0.9-0.4c-0.3,0-0.5,0.1-0.7,0.3c-0.2,0.2-0.4,0.4-0.4,0.6c0,0.1-0.1,0.3-0.1,0.4V87h-0.8V83.4z"/>
	<path class="st4" d="M66.7,84.7c0,0.6,0.2,1,0.5,1.3c0.3,0.3,0.7,0.4,1.1,0.4c0.2,0,0.3,0,0.4,0c0.1,0,0.2,0,0.4,0
		c0.2,0,0.4-0.1,0.5-0.2l0.2,0.6c-0.1,0.1-0.3,0.1-0.6,0.2c-0.3,0.1-0.6,0.1-1,0.1c-0.7,0-1.3-0.2-1.7-0.7c-0.4-0.4-0.6-1-0.6-1.8
		c0-0.8,0.2-1.4,0.6-1.9c0.4-0.5,0.9-0.7,1.6-0.8c0.4,0,0.7,0.1,0.9,0.2c0.3,0.2,0.4,0.3,0.6,0.6c0.1,0.2,0.2,0.5,0.3,0.7
		c0.1,0.3,0.1,0.5,0.1,0.7c0,0.2,0,0.3,0,0.4L66.7,84.7z M69.2,84.1c0-0.3-0.1-0.6-0.2-0.9c-0.1-0.1-0.2-0.3-0.4-0.4
		c-0.2-0.1-0.4-0.1-0.6-0.1c-0.4,0-0.8,0.2-0.9,0.5c-0.1,0.1-0.2,0.3-0.2,0.5c0,0.1-0.1,0.2-0.1,0.2c0,0.1,0,0.2,0,0.3H69.2z"/>
	<path class="st4" d="M74.5,86.8c-0.1,0.1-0.3,0.1-0.5,0.2c-0.1,0-0.2,0-0.4,0.1c-0.1,0-0.3,0-0.5,0c-0.7,0-1.3-0.2-1.7-0.7
		c-0.4-0.4-0.6-1-0.6-1.8c0-0.8,0.2-1.4,0.7-1.9c0.4-0.5,1.1-0.7,1.8-0.7c0.5,0,0.9,0.1,1.2,0.3l-0.2,0.7c-0.1-0.1-0.2-0.1-0.4-0.2
		c-0.2,0-0.4-0.1-0.6-0.1c-0.5,0-0.9,0.2-1.2,0.5c-0.3,0.4-0.4,0.8-0.4,1.3c0,0.6,0.2,1,0.5,1.3c0.3,0.3,0.7,0.5,1.2,0.5
		c0.2,0,0.4,0,0.6-0.1c0.2,0,0.3-0.1,0.4-0.2L74.5,86.8z"/>
	<path class="st4" d="M75.9,84.7c0,0.6,0.2,1,0.5,1.3c0.3,0.3,0.7,0.4,1.1,0.4c0.2,0,0.3,0,0.4,0c0.1,0,0.2,0,0.4,0
		c0.2,0,0.4-0.1,0.5-0.2l0.2,0.6c-0.1,0.1-0.3,0.1-0.6,0.2c-0.3,0.1-0.6,0.1-1,0.1c-0.7,0-1.3-0.2-1.7-0.7c-0.4-0.4-0.6-1-0.6-1.8
		c0-0.8,0.2-1.4,0.6-1.9c0.4-0.5,0.9-0.7,1.6-0.8c0.4,0,0.7,0.1,0.9,0.2c0.3,0.2,0.4,0.3,0.6,0.6c0.1,0.2,0.2,0.5,0.3,0.7
		c0.1,0.3,0.1,0.5,0.1,0.7c0,0.2,0,0.3,0,0.4L75.9,84.7z M78.4,84.1c0-0.3-0.1-0.6-0.2-0.9c-0.1-0.1-0.2-0.3-0.4-0.4
		c-0.2-0.1-0.4-0.1-0.6-0.1c-0.4,0-0.8,0.2-0.9,0.5c-0.1,0.1-0.2,0.3-0.2,0.5c0,0.1-0.1,0.2-0.1,0.2c0,0.1,0,0.2,0,0.3H78.4z"/>
	<path class="st4" d="M80.2,86.1c0.1,0.1,0.3,0.2,0.5,0.2c0.2,0.1,0.4,0.1,0.6,0.1c0.3,0,0.5-0.1,0.7-0.2c0.1-0.1,0.2-0.3,0.2-0.5
		c0-0.2-0.1-0.4-0.2-0.5c-0.1-0.1-0.4-0.3-0.7-0.4c-0.8-0.3-1.3-0.8-1.3-1.4c0-0.4,0.1-0.7,0.4-1c0.3-0.3,0.7-0.4,1.2-0.4
		c0.5,0,0.9,0.1,1.1,0.3l-0.2,0.6c-0.1-0.1-0.2-0.1-0.4-0.2c-0.2-0.1-0.4-0.1-0.6-0.1c-0.2,0-0.4,0.1-0.6,0.2C81,83,81,83.1,81,83.3
		c0,0.2,0.1,0.3,0.2,0.5c0.1,0.1,0.4,0.2,0.7,0.4c0.8,0.3,1.2,0.8,1.2,1.5c0,0.4-0.2,0.8-0.5,1.1c-0.3,0.3-0.7,0.4-1.3,0.4
		c-0.5,0-1-0.1-1.3-0.3L80.2,86.1z"/>
	<path class="st4" d="M84.1,86.1c0.1,0.1,0.3,0.2,0.5,0.2c0.2,0.1,0.4,0.1,0.6,0.1c0.3,0,0.5-0.1,0.7-0.2c0.1-0.1,0.2-0.3,0.2-0.5
		c0-0.2-0.1-0.4-0.2-0.5c-0.1-0.1-0.4-0.3-0.7-0.4C84.4,84.5,84,84,84,83.4c0-0.4,0.1-0.7,0.4-1c0.3-0.3,0.7-0.4,1.2-0.4
		c0.5,0,0.9,0.1,1.1,0.3l-0.2,0.6c-0.1-0.1-0.2-0.1-0.4-0.2c-0.2-0.1-0.4-0.1-0.6-0.1c-0.2,0-0.4,0.1-0.6,0.2
		c-0.1,0.1-0.2,0.3-0.2,0.5c0,0.2,0.1,0.3,0.2,0.5c0.1,0.1,0.4,0.2,0.7,0.4c0.8,0.3,1.2,0.8,1.2,1.5c0,0.4-0.2,0.8-0.5,1.1
		c-0.3,0.3-0.7,0.4-1.3,0.4c-0.5,0-1-0.1-1.3-0.3L84.1,86.1z"/>
	<path class="st4" d="M91.4,85.8c0,0.4,0,0.8,0.1,1.2h-0.8l-0.1-0.6h0c-0.1,0.2-0.3,0.4-0.6,0.5s-0.5,0.2-0.9,0.2
		c-0.5,0-0.8-0.2-1.1-0.4c-0.2-0.3-0.4-0.6-0.4-0.9c0-1.2,1-1.8,2.8-1.8v-0.1c0-0.1,0-0.2,0-0.4c0-0.1-0.1-0.2-0.1-0.4
		c-0.1-0.1-0.2-0.2-0.3-0.3c-0.1-0.1-0.3-0.1-0.6-0.1c-0.5,0-0.9,0.1-1.2,0.4L88,82.4c0.4-0.3,0.9-0.4,1.6-0.4
		c0.4,0,0.7,0.1,0.9,0.2c0.2,0.1,0.4,0.3,0.5,0.5c0.1,0.2,0.2,0.4,0.3,0.6c0,0.2,0.1,0.5,0.1,0.7V85.8z M90.5,84.5
		c-0.2,0-0.5,0-0.7,0c-0.2,0-0.4,0.1-0.6,0.2c-0.2,0.1-0.3,0.2-0.5,0.3c-0.1,0.1-0.2,0.3-0.2,0.6c0,0.3,0.1,0.5,0.2,0.6
		c0.1,0.1,0.3,0.2,0.6,0.2c0.3,0,0.6-0.1,0.8-0.3c0.2-0.2,0.3-0.3,0.4-0.5c0-0.1,0-0.2,0-0.3V84.5z"/>
	<path class="st4" d="M92.8,83.6c0-0.6,0-1.1,0-1.5h0.7l0,0.9h0c0.1-0.3,0.3-0.6,0.5-0.8c0.2-0.2,0.5-0.3,0.8-0.3c0.1,0,0.2,0,0.2,0
		v0.8c-0.1,0-0.2,0-0.3,0c-0.3,0-0.6,0.1-0.7,0.3c-0.2,0.2-0.3,0.5-0.4,0.8c0,0.1,0,0.3,0,0.4V87h-0.9L92.8,83.6z"/>
	<path class="st4" d="M96.5,82.1l1,2.9c0.1,0.3,0.2,0.7,0.3,1h0c0.1-0.3,0.2-0.6,0.3-1l0.9-2.8h0.9l-1.3,3.4c-0.5,1.6-1.1,2.6-1.6,3
		c-0.2,0.2-0.4,0.3-0.6,0.4c-0.2,0.1-0.3,0.1-0.4,0.2l-0.2-0.7c0.2-0.1,0.5-0.2,0.7-0.4c0.3-0.2,0.5-0.5,0.7-1
		c0-0.1,0.1-0.2,0.1-0.2c0,0,0-0.1-0.1-0.2l-1.7-4.5H96.5z"/>
	<path class="st4" d="M103.2,81.2c-0.2,0-0.3-0.1-0.4-0.2c-0.1-0.1-0.2-0.2-0.2-0.4c0-0.2,0.1-0.3,0.2-0.4c0.1-0.1,0.2-0.2,0.4-0.2
		c0.2,0,0.3,0.1,0.4,0.2c0.1,0.1,0.1,0.2,0.1,0.4c0,0.2,0,0.3-0.1,0.4C103.5,81.2,103.4,81.2,103.2,81.2L103.2,81.2z M102.8,87v-4.8
		h0.8V87H102.8z"/>
	<path class="st4" d="M105.1,87v-4.2h-0.6v-0.7h0.6v-0.2c0-0.3,0-0.7,0.1-1c0.1-0.3,0.2-0.5,0.4-0.7c0.3-0.3,0.7-0.5,1.1-0.4
		c0.3,0,0.6,0.1,0.7,0.1l-0.1,0.7c-0.1-0.1-0.3-0.1-0.5-0.1c-0.4,0-0.6,0.1-0.7,0.4c-0.1,0.3-0.2,0.6-0.2,1v0.3h1.1v0.7H106V87
		H105.1z"/>
	<path class="st4" d="M109.8,86.1c0.1,0.1,0.3,0.2,0.5,0.2c0.2,0.1,0.4,0.1,0.6,0.1c0.3,0,0.5-0.1,0.7-0.2c0.1-0.1,0.2-0.3,0.2-0.5
		c0-0.2-0.1-0.4-0.2-0.5c-0.1-0.1-0.4-0.3-0.7-0.4c-0.8-0.3-1.3-0.8-1.3-1.4c0-0.4,0.1-0.7,0.4-1c0.3-0.3,0.7-0.4,1.2-0.4
		c0.5,0,0.9,0.1,1.1,0.3l-0.2,0.6c-0.1-0.1-0.2-0.1-0.4-0.2c-0.2-0.1-0.4-0.1-0.6-0.1c-0.2,0-0.4,0.1-0.6,0.2
		c-0.1,0.1-0.2,0.3-0.2,0.5c0,0.2,0.1,0.3,0.2,0.5c0.1,0.1,0.4,0.2,0.7,0.4c0.8,0.3,1.2,0.8,1.2,1.5c0,0.4-0.2,0.8-0.5,1.1
		c-0.3,0.3-0.7,0.4-1.3,0.4c-0.5,0-1-0.1-1.3-0.3L109.8,86.1z"/>
	<path class="st4" d="M113.8,83.7c0-0.6,0-1.1,0-1.6h0.8l0,0.8h0c0.3-0.6,0.9-0.9,1.7-0.9c0.6,0,1.1,0.2,1.4,0.7
		c0.4,0.4,0.6,1,0.6,1.8c0,0.9-0.2,1.5-0.6,1.9c-0.4,0.4-0.9,0.7-1.5,0.7c-0.7,0-1.1-0.3-1.4-0.8h0V89h-0.8V83.7z M114.6,85
		c0,0.1,0,0.2,0,0.4c0.1,0.3,0.2,0.6,0.5,0.7c0.2,0.2,0.5,0.3,0.8,0.3c0.5,0,0.8-0.2,1.1-0.5c0.2-0.3,0.4-0.8,0.4-1.4
		c0-0.5-0.1-0.9-0.4-1.3c-0.2-0.3-0.6-0.5-1-0.5c-0.3,0-0.6,0.1-0.8,0.3c-0.2,0.2-0.4,0.5-0.5,0.8c0,0.1,0,0.2,0,0.4V85z"/>
	<path class="st4" d="M119.8,84.7c0,0.6,0.2,1,0.5,1.3c0.3,0.3,0.7,0.4,1.1,0.4c0.2,0,0.3,0,0.4,0c0.1,0,0.2,0,0.4,0
		c0.2,0,0.4-0.1,0.5-0.2l0.2,0.6c-0.1,0.1-0.3,0.1-0.6,0.2c-0.3,0.1-0.6,0.1-1,0.1c-0.7,0-1.3-0.2-1.7-0.7c-0.4-0.4-0.6-1-0.6-1.8
		c0-0.8,0.2-1.4,0.6-1.9c0.4-0.5,0.9-0.7,1.6-0.8c0.4,0,0.7,0.1,0.9,0.2c0.3,0.2,0.4,0.3,0.6,0.6c0.1,0.2,0.2,0.5,0.3,0.7
		c0.1,0.3,0.1,0.5,0.1,0.7c0,0.2,0,0.3,0,0.4L119.8,84.7z M122.3,84.1c0-0.3-0.1-0.6-0.2-0.9c-0.1-0.1-0.2-0.3-0.4-0.4
		c-0.2-0.1-0.4-0.1-0.6-0.1c-0.4,0-0.8,0.2-0.9,0.5c-0.1,0.1-0.2,0.3-0.2,0.5c0,0.1-0.1,0.2-0.1,0.2c0,0.1,0,0.2,0,0.3H122.3z"/>
	<path class="st4" d="M124.7,84.7c0,0.6,0.2,1,0.5,1.3c0.3,0.3,0.7,0.4,1.1,0.4c0.2,0,0.3,0,0.4,0c0.1,0,0.2,0,0.4,0
		c0.2,0,0.4-0.1,0.5-0.2l0.2,0.6c-0.1,0.1-0.3,0.1-0.6,0.2c-0.3,0.1-0.6,0.1-1,0.1c-0.7,0-1.3-0.2-1.7-0.7c-0.4-0.4-0.6-1-0.6-1.8
		c0-0.8,0.2-1.4,0.6-1.9c0.4-0.5,0.9-0.7,1.6-0.8c0.4,0,0.7,0.1,0.9,0.2c0.3,0.2,0.4,0.3,0.6,0.6c0.1,0.2,0.2,0.5,0.3,0.7
		c0.1,0.3,0.1,0.5,0.1,0.7c0,0.2,0,0.3,0,0.4L124.7,84.7z M127.2,84.1c0-0.3-0.1-0.6-0.2-0.9c-0.1-0.1-0.2-0.3-0.4-0.4
		c-0.2-0.1-0.4-0.1-0.6-0.1c-0.4,0-0.8,0.2-0.9,0.5c-0.1,0.1-0.2,0.3-0.2,0.5c0,0.1-0.1,0.2-0.1,0.2c0,0.1,0,0.2,0,0.3H127.2z"/>
	<path class="st4" d="M133.2,79.9v5.8c0,0.5,0,0.9,0,1.3h-0.8l0-0.8h0c-0.1,0.3-0.3,0.5-0.6,0.7c-0.3,0.2-0.6,0.3-1,0.3
		c-0.6,0-1-0.2-1.4-0.7c-0.4-0.4-0.6-1-0.6-1.8c0-0.8,0.2-1.5,0.6-1.9c0.4-0.5,0.9-0.7,1.5-0.7c0.4,0,0.7,0.1,0.9,0.2
		c0.2,0.1,0.4,0.3,0.5,0.5h0v-2.9H133.2z M132.4,84.1c0-0.1,0-0.3,0-0.4c-0.1-0.3-0.2-0.5-0.4-0.7c-0.2-0.2-0.5-0.3-0.8-0.3
		c-0.4,0-0.8,0.2-1,0.5c-0.3,0.3-0.4,0.8-0.4,1.3c0,0.5,0.1,0.9,0.4,1.3c0.2,0.4,0.6,0.5,1,0.5c0.3,0,0.6-0.1,0.8-0.3
		c0.1-0.1,0.2-0.2,0.3-0.3c0.1-0.1,0.1-0.3,0.2-0.4c0-0.1,0-0.2,0-0.4V84.1z"/>
	<path class="st4" d="M137.1,81.2c-0.2,0-0.3-0.1-0.4-0.2c-0.1-0.1-0.2-0.2-0.2-0.4c0-0.2,0.1-0.3,0.2-0.4c0.1-0.1,0.2-0.2,0.4-0.2
		c0.2,0,0.3,0.1,0.4,0.2c0.1,0.1,0.1,0.2,0.1,0.4c0,0.2,0,0.3-0.1,0.4C137.5,81.2,137.3,81.2,137.1,81.2L137.1,81.2z M136.7,87v-4.8
		h0.8V87H136.7z"/>
	<path class="st4" d="M138.9,86.1c0.1,0.1,0.3,0.2,0.5,0.2c0.2,0.1,0.4,0.1,0.6,0.1c0.3,0,0.5-0.1,0.7-0.2c0.1-0.1,0.2-0.3,0.2-0.5
		c0-0.2-0.1-0.4-0.2-0.5c-0.1-0.1-0.4-0.3-0.7-0.4c-0.8-0.3-1.3-0.8-1.3-1.4c0-0.4,0.1-0.7,0.4-1c0.3-0.3,0.7-0.4,1.2-0.4
		c0.5,0,0.9,0.1,1.1,0.3l-0.2,0.6c-0.1-0.1-0.2-0.1-0.4-0.2c-0.2-0.1-0.4-0.1-0.6-0.1c-0.2,0-0.4,0.1-0.6,0.2
		c-0.1,0.1-0.2,0.3-0.2,0.5c0,0.2,0.1,0.3,0.2,0.5c0.1,0.1,0.4,0.2,0.7,0.4c0.8,0.3,1.2,0.8,1.2,1.5c0,0.4-0.2,0.8-0.5,1.1
		c-0.3,0.3-0.7,0.4-1.3,0.4c-0.5,0-1-0.1-1.3-0.3L138.9,86.1z"/>
	<path class="st4" d="M144.8,83.4c0-0.5,0-0.9,0-1.3h0.8l0,0.8h0c0.1-0.2,0.3-0.4,0.6-0.6c0.2-0.2,0.6-0.3,1-0.3
		c0.3,0,0.6,0.1,0.8,0.3c0.2,0.2,0.4,0.4,0.5,0.7h0c0.2-0.3,0.3-0.5,0.5-0.6c0.1-0.1,0.3-0.2,0.5-0.3c0.2-0.1,0.4-0.1,0.6-0.1
		c0.2,0,0.3,0,0.5,0.1c0.2,0.1,0.4,0.2,0.5,0.3c0.2,0.2,0.3,0.4,0.4,0.6c0.1,0.3,0.2,0.6,0.2,1V87h-0.8v-2.7c0-1-0.4-1.5-1.1-1.5
		c-0.3,0-0.5,0.1-0.7,0.2c-0.2,0.2-0.3,0.3-0.4,0.6c0,0.1-0.1,0.3-0.1,0.4v3h-0.8v-2.9c0-0.4-0.1-0.7-0.3-1
		c-0.2-0.2-0.4-0.4-0.8-0.4c-0.3,0-0.5,0.1-0.7,0.3c-0.2,0.2-0.3,0.4-0.4,0.6c0,0.1-0.1,0.3-0.1,0.4V87h-0.8V83.4z"/>
	<path class="st4" d="M156.4,85.8c0,0.4,0,0.8,0.1,1.2h-0.8l-0.1-0.6h0c-0.1,0.2-0.3,0.4-0.6,0.5s-0.5,0.2-0.9,0.2
		c-0.5,0-0.8-0.2-1.1-0.4c-0.2-0.3-0.4-0.6-0.4-0.9c0-1.2,1-1.8,2.8-1.8v-0.1c0-0.1,0-0.2,0-0.4c0-0.1-0.1-0.2-0.1-0.4
		c-0.1-0.1-0.2-0.2-0.3-0.3c-0.1-0.1-0.3-0.1-0.6-0.1c-0.5,0-0.9,0.1-1.2,0.4l-0.2-0.6c0.4-0.3,0.9-0.4,1.6-0.4
		c0.4,0,0.7,0.1,0.9,0.2c0.2,0.1,0.4,0.3,0.5,0.5c0.1,0.2,0.2,0.4,0.3,0.6c0,0.2,0.1,0.5,0.1,0.7V85.8z M155.6,84.5
		c-0.2,0-0.5,0-0.7,0c-0.2,0-0.4,0.1-0.6,0.2c-0.2,0.1-0.3,0.2-0.5,0.3c-0.1,0.1-0.2,0.3-0.2,0.6c0,0.3,0.1,0.5,0.2,0.6
		c0.1,0.1,0.3,0.2,0.6,0.2c0.3,0,0.6-0.1,0.8-0.3c0.2-0.2,0.3-0.3,0.4-0.5c0-0.1,0-0.2,0-0.3V84.5z"/>
	<path class="st4" d="M158.2,81.2c-0.2,0-0.3-0.1-0.4-0.2c-0.1-0.1-0.2-0.2-0.2-0.4c0-0.2,0.1-0.3,0.2-0.4c0.1-0.1,0.2-0.2,0.4-0.2
		c0.2,0,0.3,0.1,0.4,0.2c0.1,0.1,0.1,0.2,0.1,0.4c0,0.2,0,0.3-0.1,0.4C158.5,81.2,158.4,81.2,158.2,81.2L158.2,81.2z M157.8,87v-4.8
		h0.8V87H157.8z"/>
	<path class="st4" d="M160.1,83.4c0-0.5,0-0.9,0-1.3h0.8l0,0.8h0c0.1-0.2,0.3-0.4,0.6-0.6c0.3-0.2,0.6-0.3,1-0.3
		c0.2,0,0.4,0,0.5,0.1c0.2,0.1,0.4,0.2,0.5,0.3c0.2,0.1,0.3,0.4,0.4,0.6c0.1,0.3,0.2,0.6,0.2,1V87h-0.8v-2.8c0-0.4-0.1-0.7-0.2-1
		c-0.2-0.3-0.5-0.4-0.9-0.4c-0.3,0-0.5,0.1-0.7,0.3c-0.2,0.2-0.4,0.4-0.4,0.6c0,0.1-0.1,0.3-0.1,0.4V87h-0.8V83.4z"/>
	<path class="st4" d="M166.5,81v1.2h1.2v0.7h-1.2v2.6c0,0.6,0.2,0.9,0.6,0.9c0.2,0,0.4,0,0.5-0.1l0,0.7c-0.2,0.1-0.4,0.1-0.8,0.1
		c-0.4,0-0.7-0.1-0.9-0.4c-0.2-0.3-0.3-0.7-0.3-1.3v-2.6h-0.7v-0.7h0.7v-0.9L166.5,81z"/>
	<path class="st4" d="M172,85.8c0,0.4,0,0.8,0.1,1.2h-0.8l-0.1-0.6h0c-0.1,0.2-0.3,0.4-0.6,0.5s-0.5,0.2-0.9,0.2
		c-0.5,0-0.8-0.2-1.1-0.4c-0.2-0.3-0.4-0.6-0.4-0.9c0-1.2,1-1.8,2.8-1.8v-0.1c0-0.1,0-0.2,0-0.4c0-0.1-0.1-0.2-0.1-0.4
		c-0.1-0.1-0.2-0.2-0.3-0.3c-0.1-0.1-0.3-0.1-0.6-0.1c-0.5,0-0.9,0.1-1.2,0.4l-0.2-0.6c0.4-0.3,0.9-0.4,1.6-0.4
		c0.4,0,0.7,0.1,0.9,0.2c0.2,0.1,0.4,0.3,0.5,0.5c0.1,0.2,0.2,0.4,0.3,0.6c0,0.2,0.1,0.5,0.1,0.7V85.8z M171.1,84.5
		c-0.2,0-0.5,0-0.7,0c-0.2,0-0.4,0.1-0.6,0.2c-0.2,0.1-0.3,0.2-0.5,0.3c-0.1,0.1-0.2,0.3-0.2,0.6c0,0.3,0.1,0.5,0.2,0.6
		c0.1,0.1,0.3,0.2,0.6,0.2c0.3,0,0.6-0.1,0.8-0.3c0.2-0.2,0.3-0.3,0.4-0.5c0-0.1,0-0.2,0-0.3V84.5z"/>
	<path class="st4" d="M173.8,81.2c-0.2,0-0.3-0.1-0.4-0.2c-0.1-0.1-0.2-0.2-0.2-0.4c0-0.2,0.1-0.3,0.2-0.4c0.1-0.1,0.2-0.2,0.4-0.2
		c0.2,0,0.3,0.1,0.4,0.2c0.1,0.1,0.1,0.2,0.1,0.4c0,0.2,0,0.3-0.1,0.4C174.1,81.2,174,81.2,173.8,81.2L173.8,81.2z M173.4,87v-4.8
		h0.8V87H173.4z"/>
	<path class="st4" d="M175.6,83.4c0-0.5,0-0.9,0-1.3h0.8l0,0.8h0c0.1-0.2,0.3-0.4,0.6-0.6c0.3-0.2,0.6-0.3,1-0.3
		c0.2,0,0.4,0,0.5,0.1c0.2,0.1,0.4,0.2,0.5,0.3c0.2,0.1,0.3,0.4,0.4,0.6c0.1,0.3,0.2,0.6,0.2,1V87h-0.8v-2.8c0-0.4-0.1-0.7-0.2-1
		c-0.2-0.3-0.5-0.4-0.9-0.4c-0.3,0-0.5,0.1-0.7,0.3c-0.2,0.2-0.4,0.4-0.4,0.6c0,0.1-0.1,0.3-0.1,0.4V87h-0.8V83.4z"/>
	<path class="st4" d="M181.6,84.7c0,0.6,0.2,1,0.5,1.3c0.3,0.3,0.7,0.4,1.1,0.4c0.2,0,0.3,0,0.4,0c0.1,0,0.2,0,0.4,0
		c0.2,0,0.4-0.1,0.5-0.2l0.2,0.6c-0.1,0.1-0.3,0.1-0.6,0.2c-0.3,0.1-0.6,0.1-1,0.1c-0.7,0-1.3-0.2-1.7-0.7c-0.4-0.4-0.6-1-0.6-1.8
		c0-0.8,0.2-1.4,0.6-1.9c0.4-0.5,0.9-0.7,1.6-0.8c0.4,0,0.7,0.1,0.9,0.2c0.3,0.2,0.4,0.3,0.6,0.6c0.1,0.2,0.2,0.5,0.3,0.7
		c0.1,0.3,0.1,0.5,0.1,0.7c0,0.2,0,0.3,0,0.4L181.6,84.7z M184.1,84.1c0-0.3-0.1-0.6-0.2-0.9c-0.1-0.1-0.2-0.3-0.4-0.4
		c-0.2-0.1-0.4-0.1-0.6-0.1c-0.4,0-0.8,0.2-0.9,0.5c-0.1,0.1-0.2,0.3-0.2,0.5c0,0.1-0.1,0.2-0.1,0.2c0,0.1,0,0.2,0,0.3H184.1z"/>
	<path class="st4" d="M190,79.9v5.8c0,0.5,0,0.9,0,1.3h-0.8l0-0.8h0c-0.1,0.3-0.3,0.5-0.6,0.7c-0.3,0.2-0.6,0.3-1,0.3
		c-0.6,0-1-0.2-1.4-0.7c-0.4-0.4-0.6-1-0.6-1.8c0-0.8,0.2-1.5,0.6-1.9c0.4-0.5,0.9-0.7,1.5-0.7c0.4,0,0.7,0.1,0.9,0.2
		c0.2,0.1,0.4,0.3,0.5,0.5h0v-2.9H190z M189.2,84.1c0-0.1,0-0.3,0-0.4c-0.1-0.3-0.2-0.5-0.4-0.7c-0.2-0.2-0.5-0.3-0.8-0.3
		c-0.4,0-0.8,0.2-1,0.5c-0.3,0.3-0.4,0.8-0.4,1.3c0,0.5,0.1,0.9,0.4,1.3c0.2,0.4,0.6,0.5,1,0.5c0.3,0,0.6-0.1,0.8-0.3
		c0.1-0.1,0.2-0.2,0.3-0.3c0.1-0.1,0.1-0.3,0.2-0.4c0-0.1,0-0.2,0-0.4V84.1z"/>
	<path class="st4" d="M191.7,87.1c-0.2,0-0.3-0.1-0.4-0.2c-0.1-0.1-0.2-0.3-0.2-0.4c0-0.2,0.1-0.3,0.2-0.5c0.1-0.1,0.2-0.2,0.4-0.2
		c0.2,0,0.3,0.1,0.4,0.2c0.1,0.1,0.2,0.3,0.2,0.5c0,0.2-0.1,0.3-0.2,0.4C192,87,191.9,87.1,191.7,87.1L191.7,87.1z"/>
	<path class="st4" d="M47.5,92.2v4c0,1.4,0.5,2.2,1.5,2.1c1,0,1.6-0.7,1.6-2.1v-4h0.8v3.9c0,1-0.2,1.8-0.7,2.2
		c-0.5,0.5-1,0.7-1.8,0.7c-0.7,0-1.2-0.2-1.7-0.7c-0.4-0.4-0.7-1.2-0.7-2.2v-4H47.5z"/>
	<path class="st4" d="M53,95.7c0-0.6,0-1.1,0-1.6h0.8l0,0.8h0c0.3-0.6,0.9-0.9,1.7-0.9c0.6,0,1.1,0.2,1.4,0.7c0.4,0.4,0.6,1,0.6,1.8
		c0,0.9-0.2,1.5-0.6,1.9c-0.4,0.4-0.9,0.7-1.5,0.7c-0.7,0-1.1-0.3-1.4-0.8h0v2.6H53V95.7z M53.8,97c0,0.1,0,0.2,0,0.4
		c0.1,0.3,0.2,0.6,0.5,0.7c0.2,0.2,0.5,0.3,0.8,0.3c0.5,0,0.8-0.2,1.1-0.5c0.2-0.3,0.4-0.8,0.4-1.4c0-0.5-0.1-0.9-0.4-1.3
		c-0.2-0.3-0.6-0.5-1-0.5c-0.3,0-0.6,0.1-0.8,0.3c-0.2,0.2-0.4,0.5-0.5,0.8c0,0.1,0,0.2,0,0.4V97z"/>
	<path class="st4" d="M62.6,98.3c0,0.6-0.1,1-0.2,1.4c-0.1,0.4-0.3,0.6-0.5,0.9c-0.2,0.2-0.5,0.4-0.8,0.4c-0.3,0.1-0.6,0.1-0.9,0.1
		c-0.3,0-0.6,0-0.8-0.1c-0.3-0.1-0.5-0.2-0.7-0.3l0.2-0.7c0.3,0.2,0.8,0.4,1.4,0.4c0.4,0,0.8-0.1,1.1-0.4c0.3-0.3,0.4-0.7,0.4-1.3
		v-0.5h0c-0.1,0.2-0.3,0.4-0.6,0.6c-0.3,0.2-0.6,0.2-0.9,0.2c-0.6,0-1.1-0.2-1.4-0.7c-0.4-0.4-0.6-1-0.6-1.7c0-0.8,0.2-1.5,0.7-1.9
		c0.4-0.4,0.9-0.7,1.5-0.7c0.4,0,0.7,0.1,1,0.3c0.2,0.2,0.4,0.4,0.5,0.6h0l0-0.7l0.8,0c0,0.3,0,0.8,0,1.3V98.3z M61.8,96
		c0-0.1,0-0.3,0-0.4c-0.1-0.3-0.2-0.5-0.4-0.7c-0.2-0.2-0.5-0.3-0.8-0.3c-0.4,0-0.7,0.2-1,0.5c-0.3,0.3-0.4,0.8-0.4,1.4
		c0,0.5,0.1,0.9,0.4,1.2c0.2,0.3,0.6,0.5,1,0.5c0.3,0,0.5-0.1,0.7-0.3c0.2-0.2,0.4-0.4,0.4-0.7c0-0.1,0.1-0.3,0.1-0.5V96z"/>
	<path class="st4" d="M64.1,95.6c0-0.6,0-1.1,0-1.5h0.7l0,0.9h0c0.1-0.3,0.3-0.6,0.5-0.8c0.2-0.2,0.5-0.3,0.8-0.3c0.1,0,0.2,0,0.2,0
		v0.8c-0.1,0-0.2,0-0.3,0c-0.3,0-0.6,0.1-0.7,0.3C65.2,95.4,65,95.6,65,96c0,0.1,0,0.3,0,0.4V99h-0.9L64.1,95.6z"/>
	<path class="st4" d="M70.5,97.8c0,0.4,0,0.8,0.1,1.2h-0.8l-0.1-0.6h0c-0.1,0.2-0.3,0.4-0.6,0.5s-0.5,0.2-0.9,0.2
		c-0.5,0-0.8-0.2-1.1-0.4c-0.2-0.3-0.4-0.6-0.4-0.9c0-1.2,1-1.8,2.8-1.8v-0.1c0-0.1,0-0.2,0-0.4c0-0.1-0.1-0.2-0.1-0.4
		c-0.1-0.1-0.2-0.2-0.3-0.3c-0.1-0.1-0.3-0.1-0.6-0.1c-0.5,0-0.9,0.1-1.2,0.4l-0.2-0.6c0.4-0.3,0.9-0.4,1.6-0.4
		c0.4,0,0.7,0.1,0.9,0.2c0.2,0.1,0.4,0.3,0.5,0.5c0.1,0.2,0.2,0.4,0.3,0.6c0,0.2,0.1,0.5,0.1,0.7V97.8z M69.7,96.5
		c-0.2,0-0.5,0-0.7,0c-0.2,0-0.4,0.1-0.6,0.2c-0.2,0.1-0.3,0.2-0.5,0.3c-0.1,0.1-0.2,0.3-0.2,0.6c0,0.3,0.1,0.5,0.2,0.6
		c0.1,0.1,0.3,0.2,0.6,0.2c0.3,0,0.6-0.1,0.8-0.3c0.2-0.2,0.3-0.3,0.4-0.5c0-0.1,0-0.2,0-0.3V96.5z"/>
	<path class="st4" d="M76,91.9v5.8c0,0.5,0,0.9,0,1.3h-0.8l0-0.8h0c-0.1,0.3-0.3,0.5-0.6,0.7c-0.3,0.2-0.6,0.3-1,0.3
		c-0.6,0-1-0.2-1.4-0.7c-0.4-0.4-0.6-1-0.6-1.8c0-0.8,0.2-1.5,0.6-1.9c0.4-0.5,0.9-0.7,1.5-0.7c0.4,0,0.7,0.1,0.9,0.2
		c0.2,0.1,0.4,0.3,0.5,0.5h0v-2.9H76z M75.1,96.1c0-0.1,0-0.3,0-0.4c-0.1-0.3-0.2-0.5-0.4-0.7c-0.2-0.2-0.5-0.3-0.8-0.3
		c-0.4,0-0.8,0.2-1,0.5c-0.3,0.3-0.4,0.8-0.4,1.3c0,0.5,0.1,0.9,0.4,1.3c0.2,0.4,0.6,0.5,1,0.5c0.3,0,0.6-0.1,0.8-0.3
		c0.1-0.1,0.2-0.2,0.3-0.3c0.1-0.1,0.1-0.3,0.2-0.4c0-0.1,0-0.2,0-0.4V96.1z"/>
	<path class="st4" d="M77.9,96.7c0,0.6,0.2,1,0.5,1.3c0.3,0.3,0.7,0.4,1.1,0.4c0.2,0,0.3,0,0.4,0c0.1,0,0.2,0,0.4,0
		c0.2,0,0.4-0.1,0.5-0.2l0.2,0.6c-0.1,0.1-0.3,0.1-0.6,0.2c-0.3,0.1-0.6,0.1-1,0.1c-0.7,0-1.3-0.2-1.7-0.7c-0.4-0.4-0.6-1-0.6-1.8
		c0-0.8,0.2-1.4,0.6-1.9c0.4-0.5,0.9-0.7,1.6-0.8c0.4,0,0.7,0.1,0.9,0.2c0.3,0.2,0.4,0.3,0.6,0.6c0.1,0.2,0.2,0.5,0.3,0.7
		c0.1,0.3,0.1,0.5,0.1,0.7c0,0.2,0,0.3,0,0.4L77.9,96.7z M80.4,96.1c0-0.3-0.1-0.6-0.2-0.9c-0.1-0.1-0.2-0.3-0.4-0.4
		c-0.2-0.1-0.4-0.1-0.6-0.1c-0.4,0-0.8,0.2-0.9,0.5c-0.1,0.1-0.2,0.3-0.2,0.5c0,0.1-0.1,0.2-0.1,0.2c0,0.1,0,0.2,0,0.3H80.4z"/>
	<path class="st4" d="M82.2,98.1c0.1,0.1,0.3,0.2,0.5,0.2c0.2,0.1,0.4,0.1,0.6,0.1c0.3,0,0.5-0.1,0.7-0.2c0.1-0.1,0.2-0.3,0.2-0.5
		c0-0.2-0.1-0.4-0.2-0.5c-0.1-0.1-0.4-0.3-0.7-0.4c-0.8-0.3-1.3-0.8-1.3-1.4c0-0.4,0.1-0.7,0.4-1c0.3-0.3,0.7-0.4,1.2-0.4
		c0.5,0,0.9,0.1,1.1,0.3l-0.2,0.6c-0.1-0.1-0.2-0.1-0.4-0.2c-0.2-0.1-0.4-0.1-0.6-0.1c-0.2,0-0.4,0.1-0.6,0.2
		C83.1,95,83,95.1,83,95.3c0,0.2,0.1,0.3,0.2,0.5c0.1,0.1,0.4,0.2,0.7,0.4c0.8,0.3,1.2,0.8,1.2,1.5c0,0.4-0.2,0.8-0.5,1.1
		c-0.3,0.3-0.7,0.4-1.3,0.4c-0.5,0-1-0.1-1.3-0.3L82.2,98.1z"/>
	<path class="st4" d="M91.5,97.8c0,0.4,0,0.8,0.1,1.2h-0.8l-0.1-0.6h0c-0.1,0.2-0.3,0.4-0.6,0.5s-0.5,0.2-0.9,0.2
		c-0.5,0-0.8-0.2-1.1-0.4c-0.2-0.3-0.4-0.6-0.4-0.9c0-1.2,1-1.8,2.8-1.8v-0.1c0-0.1,0-0.2,0-0.4c0-0.1-0.1-0.2-0.1-0.4
		c-0.1-0.1-0.2-0.2-0.3-0.3c-0.1-0.1-0.3-0.1-0.6-0.1c-0.5,0-0.9,0.1-1.2,0.4l-0.2-0.6c0.4-0.3,0.9-0.4,1.6-0.4
		c0.4,0,0.7,0.1,0.9,0.2c0.2,0.1,0.4,0.3,0.5,0.5c0.1,0.2,0.2,0.4,0.3,0.6c0,0.2,0.1,0.5,0.1,0.7V97.8z M90.7,96.5
		c-0.2,0-0.5,0-0.7,0c-0.2,0-0.4,0.1-0.6,0.2c-0.2,0.1-0.3,0.2-0.5,0.3c-0.1,0.1-0.2,0.3-0.2,0.6c0,0.3,0.1,0.5,0.2,0.6
		c0.1,0.1,0.3,0.2,0.6,0.2c0.3,0,0.6-0.1,0.8-0.3c0.2-0.2,0.3-0.3,0.4-0.5c0-0.1,0-0.2,0-0.3V96.5z"/>
	<path class="st4" d="M94,93v1.2h1.2v0.7H94v2.6c0,0.6,0.2,0.9,0.6,0.9c0.2,0,0.4,0,0.5-0.1l0,0.7c-0.2,0.1-0.4,0.1-0.8,0.1
		c-0.4,0-0.7-0.1-0.9-0.4c-0.2-0.3-0.3-0.7-0.3-1.3v-2.6h-0.7v-0.7h0.7v-0.9L94,93z"/>
	<path class="st4" d="M101.6,95.8H99v2.4h2.8V99h-3.7v-6.7h3.5V93H99v2.1h2.5V95.8z"/>
	<path class="st4" d="M102.9,98.1c0.1,0.1,0.3,0.2,0.5,0.2c0.2,0.1,0.4,0.1,0.6,0.1c0.3,0,0.5-0.1,0.7-0.2c0.1-0.1,0.2-0.3,0.2-0.5
		c0-0.2-0.1-0.4-0.2-0.5c-0.1-0.1-0.4-0.3-0.7-0.4c-0.8-0.3-1.3-0.8-1.3-1.4c0-0.4,0.1-0.7,0.4-1c0.3-0.3,0.7-0.4,1.2-0.4
		c0.5,0,0.9,0.1,1.1,0.3l-0.2,0.6c-0.1-0.1-0.2-0.1-0.4-0.2c-0.2-0.1-0.4-0.1-0.6-0.1c-0.2,0-0.4,0.1-0.6,0.2
		c-0.1,0.1-0.2,0.3-0.2,0.5c0,0.2,0.1,0.3,0.2,0.5c0.1,0.1,0.4,0.2,0.7,0.4c0.8,0.3,1.2,0.8,1.2,1.5c0,0.4-0.2,0.8-0.5,1.1
		c-0.3,0.3-0.7,0.4-1.3,0.4c-0.5,0-1-0.1-1.3-0.3L102.9,98.1z"/>
	<path class="st4" d="M106.7,98.1c0.1,0.1,0.3,0.2,0.5,0.2c0.2,0.1,0.4,0.1,0.6,0.1c0.3,0,0.5-0.1,0.7-0.2c0.1-0.1,0.2-0.3,0.2-0.5
		c0-0.2-0.1-0.4-0.2-0.5c-0.1-0.1-0.4-0.3-0.7-0.4c-0.8-0.3-1.3-0.8-1.3-1.4c0-0.4,0.1-0.7,0.4-1c0.3-0.3,0.7-0.4,1.2-0.4
		c0.5,0,0.9,0.1,1.1,0.3l-0.2,0.6c-0.1-0.1-0.2-0.1-0.4-0.2c-0.2-0.1-0.4-0.1-0.6-0.1c-0.2,0-0.4,0.1-0.6,0.2
		c-0.1,0.1-0.2,0.3-0.2,0.5c0,0.2,0.1,0.3,0.2,0.5c0.1,0.1,0.4,0.2,0.7,0.4c0.8,0.3,1.2,0.8,1.2,1.5c0,0.4-0.2,0.8-0.5,1.1
		c-0.3,0.3-0.7,0.4-1.3,0.4c-0.5,0-1-0.1-1.3-0.3L106.7,98.1z"/>
	<path class="st4" d="M111.2,96.7c0,0.6,0.2,1,0.5,1.3c0.3,0.3,0.7,0.4,1.1,0.4c0.2,0,0.3,0,0.4,0c0.1,0,0.2,0,0.4,0
		c0.2,0,0.4-0.1,0.5-0.2l0.2,0.6c-0.1,0.1-0.3,0.1-0.6,0.2c-0.3,0.1-0.6,0.1-1,0.1c-0.7,0-1.3-0.2-1.7-0.7c-0.4-0.4-0.6-1-0.6-1.8
		c0-0.8,0.2-1.4,0.6-1.9c0.4-0.5,0.9-0.7,1.6-0.8c0.4,0,0.7,0.1,0.9,0.2c0.3,0.2,0.4,0.3,0.6,0.6c0.1,0.2,0.2,0.5,0.3,0.7
		c0.1,0.3,0.1,0.5,0.1,0.7c0,0.2,0,0.3,0,0.4L111.2,96.7z M113.7,96.1c0-0.3-0.1-0.6-0.2-0.9c-0.1-0.1-0.2-0.3-0.4-0.4
		c-0.2-0.1-0.4-0.1-0.6-0.1c-0.4,0-0.8,0.2-0.9,0.5c-0.1,0.1-0.2,0.3-0.2,0.5c0,0.1-0.1,0.2-0.1,0.2c0,0.1,0,0.2,0,0.3H113.7z"/>
	<path class="st4" d="M115.6,95.4c0-0.5,0-0.9,0-1.3h0.8l0,0.8h0c0.1-0.2,0.3-0.4,0.6-0.6c0.3-0.2,0.6-0.3,1-0.3
		c0.2,0,0.4,0,0.5,0.1c0.2,0.1,0.4,0.2,0.5,0.3c0.2,0.1,0.3,0.4,0.4,0.6c0.1,0.3,0.2,0.6,0.2,1V99h-0.8v-2.8c0-0.4-0.1-0.7-0.2-1
		c-0.2-0.3-0.5-0.4-0.9-0.4c-0.3,0-0.5,0.1-0.7,0.3c-0.2,0.2-0.4,0.4-0.4,0.6c0,0.1-0.1,0.3-0.1,0.4V99h-0.8V95.4z"/>
	<path class="st4" d="M124.4,98.8c-0.1,0.1-0.3,0.1-0.5,0.2c-0.1,0-0.2,0-0.4,0.1c-0.1,0-0.3,0-0.5,0c-0.7,0-1.3-0.2-1.7-0.7
		c-0.4-0.4-0.6-1-0.6-1.8c0-0.8,0.2-1.4,0.7-1.9c0.4-0.5,1.1-0.7,1.8-0.7c0.5,0,0.9,0.1,1.2,0.3l-0.2,0.7c-0.1-0.1-0.2-0.1-0.4-0.2
		c-0.2,0-0.4-0.1-0.6-0.1c-0.5,0-0.9,0.2-1.2,0.5c-0.3,0.4-0.4,0.8-0.4,1.3c0,0.6,0.2,1,0.5,1.3c0.3,0.3,0.7,0.5,1.2,0.5
		c0.2,0,0.4,0,0.6-0.1c0.2,0,0.3-0.1,0.4-0.2L124.4,98.8z"/>
	<path class="st4" d="M125.9,96.7c0,0.6,0.2,1,0.5,1.3c0.3,0.3,0.7,0.4,1.1,0.4c0.2,0,0.3,0,0.4,0c0.1,0,0.2,0,0.4,0
		c0.2,0,0.4-0.1,0.5-0.2l0.2,0.6c-0.1,0.1-0.3,0.1-0.6,0.2c-0.3,0.1-0.6,0.1-1,0.1c-0.7,0-1.3-0.2-1.7-0.7c-0.4-0.4-0.6-1-0.6-1.8
		c0-0.8,0.2-1.4,0.6-1.9c0.4-0.5,0.9-0.7,1.6-0.8c0.4,0,0.7,0.1,0.9,0.2c0.3,0.2,0.4,0.3,0.6,0.6c0.1,0.2,0.2,0.5,0.3,0.7
		c0.1,0.3,0.1,0.5,0.1,0.7c0,0.2,0,0.3,0,0.4L125.9,96.7z M128.4,96.1c0-0.3-0.1-0.6-0.2-0.9c-0.1-0.1-0.2-0.3-0.4-0.4
		c-0.2-0.1-0.4-0.1-0.6-0.1c-0.4,0-0.8,0.2-0.9,0.5c-0.1,0.1-0.2,0.3-0.2,0.5c0,0.1-0.1,0.2-0.1,0.2c0,0.1,0,0.2,0,0.3H128.4z"/>
	<path class="st4" d="M132.1,99v-0.5l0.7-0.7c1.6-1.4,2.4-2.6,2.3-3.4c0-0.3-0.1-0.6-0.3-0.9c-0.2-0.2-0.5-0.4-1-0.4
		c-0.3,0-0.5,0.1-0.8,0.2c-0.2,0.1-0.4,0.2-0.6,0.4l-0.3-0.6c0.4-0.4,1-0.6,1.8-0.7c0.7,0,1.2,0.2,1.5,0.6c0.3,0.4,0.4,0.8,0.4,1.3
		c0,0.6-0.2,1.2-0.6,1.7c-0.4,0.5-0.9,1.1-1.6,1.8l-0.5,0.5v0h2.8V99H132.1z"/>
	<path class="st4" d="M139.8,93.7V96h2.2v0.6h-2.2V99h-0.6v-2.4H137V96h2.2v-2.3H139.8z"/>
	<path class="st4" d="M148.5,97.8c0,0.4,0,0.8,0.1,1.2h-0.8l-0.1-0.6h0c-0.1,0.2-0.3,0.4-0.6,0.5s-0.5,0.2-0.9,0.2
		c-0.5,0-0.8-0.2-1.1-0.4c-0.2-0.3-0.4-0.6-0.4-0.9c0-1.2,1-1.8,2.8-1.8v-0.1c0-0.1,0-0.2,0-0.4c0-0.1-0.1-0.2-0.1-0.4
		c-0.1-0.1-0.2-0.2-0.3-0.3c-0.1-0.1-0.3-0.1-0.6-0.1c-0.5,0-0.9,0.1-1.2,0.4l-0.2-0.6c0.4-0.3,0.9-0.4,1.6-0.4
		c0.4,0,0.7,0.1,0.9,0.2c0.2,0.1,0.4,0.3,0.5,0.5c0.1,0.2,0.2,0.4,0.3,0.6c0,0.2,0.1,0.5,0.1,0.7V97.8z M147.7,96.5
		c-0.2,0-0.5,0-0.7,0c-0.2,0-0.4,0.1-0.6,0.2c-0.2,0.1-0.3,0.2-0.5,0.3c-0.1,0.1-0.2,0.3-0.2,0.6c0,0.3,0.1,0.5,0.2,0.6
		c0.1,0.1,0.3,0.2,0.6,0.2c0.3,0,0.6-0.1,0.8-0.3c0.2-0.2,0.3-0.3,0.4-0.5c0-0.1,0-0.2,0-0.3V96.5z"/>
	<path class="st4" d="M150,95.4c0-0.5,0-0.9,0-1.3h0.8l0,0.8h0c0.1-0.2,0.3-0.4,0.6-0.6c0.3-0.2,0.6-0.3,1-0.3c0.2,0,0.4,0,0.5,0.1
		c0.2,0.1,0.4,0.2,0.5,0.3c0.2,0.1,0.3,0.4,0.4,0.6c0.1,0.3,0.2,0.6,0.2,1V99h-0.8v-2.8c0-0.4-0.1-0.7-0.2-1
		c-0.2-0.3-0.5-0.4-0.9-0.4c-0.3,0-0.5,0.1-0.7,0.3c-0.2,0.2-0.4,0.4-0.4,0.6c0,0.1-0.1,0.3-0.1,0.4V99H150V95.4z"/>
	<path class="st4" d="M159.5,91.9v5.8c0,0.5,0,0.9,0,1.3h-0.8l0-0.8h0c-0.1,0.3-0.3,0.5-0.6,0.7c-0.3,0.2-0.6,0.3-1,0.3
		c-0.6,0-1-0.2-1.4-0.7c-0.4-0.4-0.6-1-0.6-1.8c0-0.8,0.2-1.5,0.6-1.9c0.4-0.5,0.9-0.7,1.5-0.7c0.4,0,0.7,0.1,0.9,0.2
		c0.2,0.1,0.4,0.3,0.5,0.5h0v-2.9H159.5z M158.6,96.1c0-0.1,0-0.3,0-0.4c-0.1-0.3-0.2-0.5-0.4-0.7c-0.2-0.2-0.5-0.3-0.8-0.3
		c-0.4,0-0.8,0.2-1,0.5c-0.3,0.3-0.4,0.8-0.4,1.3c0,0.5,0.1,0.9,0.4,1.3c0.2,0.4,0.6,0.5,1,0.5c0.3,0,0.6-0.1,0.8-0.3
		c0.1-0.1,0.2-0.2,0.3-0.3c0.1-0.1,0.1-0.3,0.2-0.4c0-0.1,0-0.2,0-0.4V96.1z"/>
	<path class="st4" d="M164.1,96.9l-0.7,2.1h-0.9l2.2-6.7h1L168,99h-0.9l-0.7-2.1H164.1z M166.2,96.2l-0.6-1.9
		c-0.1-0.4-0.2-0.8-0.3-1.2h0c0,0.2-0.1,0.4-0.1,0.6c-0.1,0.2-0.1,0.4-0.2,0.6l-0.6,2H166.2z"/>
	<path class="st4" d="M169.9,93v1.2h1.2v0.7h-1.2v2.6c0,0.6,0.2,0.9,0.6,0.9c0.2,0,0.4,0,0.5-0.1l0,0.7c-0.2,0.1-0.4,0.1-0.8,0.1
		c-0.4,0-0.7-0.1-0.9-0.4c-0.2-0.3-0.3-0.7-0.3-1.3v-2.6h-0.7v-0.7h0.7v-0.9L169.9,93z"/>
	<path class="st4" d="M172.1,91.9h0.8v3h0c0.1-0.3,0.3-0.5,0.6-0.6c0.3-0.2,0.5-0.3,0.9-0.3c0.2,0,0.3,0,0.5,0.1
		c0.2,0.1,0.4,0.2,0.5,0.3c0.2,0.1,0.3,0.4,0.4,0.6c0.1,0.3,0.2,0.6,0.2,1V99h-0.8v-2.8c0-0.4-0.1-0.8-0.2-1
		c-0.2-0.3-0.5-0.4-0.9-0.4c-0.3,0-0.5,0.1-0.7,0.3c-0.2,0.2-0.3,0.4-0.4,0.6c0,0.1-0.1,0.3-0.1,0.4V99h-0.8V91.9z"/>
	<path class="st4" d="M177.6,91.9h0.8V99h-0.8V91.9z"/>
	<path class="st4" d="M180.3,96.7c0,0.6,0.2,1,0.5,1.3c0.3,0.3,0.7,0.4,1.1,0.4c0.2,0,0.3,0,0.4,0c0.1,0,0.2,0,0.4,0
		c0.2,0,0.4-0.1,0.5-0.2l0.2,0.6c-0.1,0.1-0.3,0.1-0.6,0.2c-0.3,0.1-0.6,0.1-1,0.1c-0.7,0-1.3-0.2-1.7-0.7c-0.4-0.4-0.6-1-0.6-1.8
		c0-0.8,0.2-1.4,0.6-1.9c0.4-0.5,0.9-0.7,1.6-0.8c0.4,0,0.7,0.1,0.9,0.2c0.3,0.2,0.4,0.3,0.6,0.6c0.1,0.2,0.2,0.5,0.3,0.7
		c0.1,0.3,0.1,0.5,0.1,0.7c0,0.2,0,0.3,0,0.4L180.3,96.7z M182.8,96.1c0-0.3-0.1-0.6-0.2-0.9c-0.1-0.1-0.2-0.3-0.4-0.4
		c-0.2-0.1-0.4-0.1-0.6-0.1c-0.4,0-0.8,0.2-0.9,0.5c-0.1,0.1-0.2,0.3-0.2,0.5c0,0.1-0.1,0.2-0.1,0.2c0,0.1,0,0.2,0,0.3H182.8z"/>
	<path class="st4" d="M185.7,93v1.2h1.2v0.7h-1.2v2.6c0,0.6,0.2,0.9,0.6,0.9c0.2,0,0.4,0,0.5-0.1l0,0.7c-0.2,0.1-0.4,0.1-0.8,0.1
		c-0.4,0-0.7-0.1-0.9-0.4c-0.2-0.3-0.3-0.7-0.3-1.3v-2.6h-0.7v-0.7h0.7v-0.9L185.7,93z"/>
	<path class="st4" d="M188.3,93.2c-0.2,0-0.3-0.1-0.4-0.2c-0.1-0.1-0.2-0.2-0.2-0.4c0-0.2,0.1-0.3,0.2-0.4c0.1-0.1,0.2-0.2,0.4-0.2
		c0.2,0,0.3,0.1,0.4,0.2c0.1,0.1,0.1,0.2,0.1,0.4c0,0.2,0,0.3-0.1,0.4C188.6,93.2,188.5,93.2,188.3,93.2L188.3,93.2z M187.9,99v-4.8
		h0.8V99H187.9z"/>
	<path class="st4" d="M193.5,98.8c-0.1,0.1-0.3,0.1-0.5,0.2c-0.1,0-0.2,0-0.4,0.1c-0.1,0-0.3,0-0.5,0c-0.7,0-1.3-0.2-1.7-0.7
		c-0.4-0.4-0.6-1-0.6-1.8c0-0.8,0.2-1.4,0.7-1.9c0.4-0.5,1.1-0.7,1.8-0.7c0.5,0,0.9,0.1,1.2,0.3l-0.2,0.7c-0.1-0.1-0.2-0.1-0.4-0.2
		c-0.2,0-0.4-0.1-0.6-0.1c-0.5,0-0.9,0.2-1.2,0.5c-0.3,0.4-0.4,0.8-0.4,1.3c0,0.6,0.2,1,0.5,1.3c0.3,0.3,0.7,0.5,1.2,0.5
		c0.2,0,0.4,0,0.6-0.1c0.2,0,0.3-0.1,0.4-0.2L193.5,98.8z"/>
	<path class="st4" d="M194.4,98.1c0.1,0.1,0.3,0.2,0.5,0.2c0.2,0.1,0.4,0.1,0.6,0.1c0.3,0,0.5-0.1,0.7-0.2c0.1-0.1,0.2-0.3,0.2-0.5
		c0-0.2-0.1-0.4-0.2-0.5c-0.1-0.1-0.4-0.3-0.7-0.4c-0.8-0.3-1.3-0.8-1.3-1.4c0-0.4,0.1-0.7,0.4-1c0.3-0.3,0.7-0.4,1.2-0.4
		c0.5,0,0.9,0.1,1.1,0.3l-0.2,0.6c-0.1-0.1-0.2-0.1-0.4-0.2c-0.2-0.1-0.4-0.1-0.6-0.1c-0.2,0-0.4,0.1-0.6,0.2
		c-0.1,0.1-0.2,0.3-0.2,0.5c0,0.2,0.1,0.3,0.2,0.5c0.1,0.1,0.4,0.2,0.7,0.4c0.8,0.3,1.2,0.8,1.2,1.5c0,0.4-0.2,0.8-0.5,1.1
		c-0.3,0.3-0.7,0.4-1.3,0.4c-0.5,0-1-0.1-1.3-0.3L194.4,98.1z"/>
	<path class="st4" d="M203.9,93.2h-2.4l-0.2,1.7c0.1,0,0.3,0,0.5,0c0.5,0,1,0.1,1.4,0.4c0.3,0.1,0.5,0.3,0.6,0.6
		c0.2,0.3,0.3,0.6,0.3,1.1c0,0.6-0.2,1.2-0.6,1.6c-0.4,0.4-1,0.6-1.7,0.6c-0.7,0-1.2-0.2-1.6-0.4l0.2-0.7c0.1,0.1,0.3,0.2,0.6,0.2
		c0.2,0.1,0.5,0.1,0.8,0.1c0.4,0,0.8-0.1,1-0.4c0.3-0.2,0.4-0.6,0.4-1c0-0.9-0.6-1.4-1.8-1.5c-0.4,0-0.7,0-0.9,0.1l0.4-3.1h3V93.2z"
		/>
	<path class="st4" d="M205.8,99.1c-0.2,0-0.3-0.1-0.4-0.2c-0.1-0.1-0.2-0.3-0.2-0.4c0-0.2,0.1-0.3,0.2-0.5c0.1-0.1,0.2-0.2,0.4-0.2
		c0.2,0,0.3,0.1,0.4,0.2c0.1,0.1,0.2,0.3,0.2,0.5c0,0.2-0.1,0.3-0.2,0.4C206.1,99,206,99.1,205.8,99.1L205.8,99.1z"/>
</g>
<!-- Text over -->

<!-- upgrade arrow -->
<g>
	<circle class="st5" cx="251" cy="13.3" r="7.6"/>
	<polygon class="st6" points="254.4,13.5 251,7.5 247.6,13.5 249.8,13.5 249.8,19.1 252.2,19.1 252.2,13.5 	"/>
</g>
</svg>
